/* XPM */
static char *_0508_a70cb3b4e01449653f4cc70beb9bf9871552bf2156d1284ad265d7c46e08a531[] = {
/* columns rows colors chars-per-pixel */
"115 68 64 1 ",
"  c #FFFFFF",
". c #0F0F1B",
"X c #13131F",
"o c #381919",
"O c #2E291C",
"+ c #3A3319",
"@ c #1B1B27",
"# c #27272F",
"$ c #3E322C",
"% c #32323A",
"& c #4D1E18",
"* c #750204",
"= c #7F0000",
"- c #4A3515",
"; c #453C15",
": c #573D12",
"> c #5A2D24",
", c #514512",
"< c #64450E",
"1 c #714C0B",
"2 c #68570B",
"3 c #7D5407",
"4 c #746107",
"5 c #7F6A04",
"6 c #3B3B42",
"7 c #056A6D",
"8 c #4C4C51",
"9 c #5E5E61",
"0 c gray44",
"q c #976300",
"w c #8B7300",
"e c #9C6854",
"r c #8B7F7F",
"t c #B1840D",
"y c #C4910A",
"u c black",
"i c black",
"p c black",
"a c black",
"s c black",
"d c black",
"f c black",
"g c black",
"h c black",
"j c black",
"k c black",
"l c black",
"z c black",
"x c black",
"c c black",
"v c black",
"b c black",
"n c black",
"m c black",
"M c black",
"N c black",
"B c black",
"V c black",
"C c black",
"Z c black",
"A c black",
"S c black",
"D c black",
"F c black",
/* pixels */
"                                                                                          ;t                       ",
"                                                                                         ;q4tt                     ",
"                                                                                       ..;11rtto                   ",
"                                                                                .        oo1qqty                   ",
"                                                                                        ;;ooeetyyy4                ",
"                                                                                       ;;;oooqttqq44               ",
"                                                                                       ;qqX77o4tqqq4               ",
"                                                                                       4qo1ooo114144               ",
"                                                                                      11qoyyyqo11144               ",
"                                                                                     *1111yyrooo11q4               ",
"                                                                                    *or*1oq;1X77o1q1               ",
"                                                                               ***  rrrr*1o;;;XXXq414              ",
"                                                                            e*******qo1r***1;11X1qqqtt             ",
"                                                                          q4o===****rrorr**11;11oooooqttt          ",
"                                                                        *oo>oo2==******oo1*1;1;;1oooo;;;4tt        ",
"                                                                        *;o&&&o==*******ro;;;;;;qoooor;;           ",
"                                                                        *;;+%o===**;;o**r*;;;;;;o  oeyq            ",
"                                                                       **oo++oo=****;oooooo;;;;                    ",
"                                                                o;*   ***o-++-oooooo**ooooo;;                      ",
"                                                             ;qqqq**  ***o:-::2333ooo*oooooo                       ",
"                                                            ;44444**  ***o1qo:23332ooooooOO                        ",
"                                                           o44111;o** ***o1:1:1q3333oo*ooooooo                     ",
"                                                           4441;oooo   **o:::-:<3qqqoo<+O                          ",
"                                                          ;44;1        ;o1-o-++:2q333o++;                          ",
"                                                         ;4111;         11oo+++-:<2332-O                           ",
"                                                         4411;  y   y   ;;++++++-:<22<-o                           ",
"                                                        1411;  yy  yy   oo;o1;++++<<2:oo                           ",
"                                                       141;qyq 5w  55     ; ;++o++-<+&o                            ",
"                                                      ;141 qq5 12 <<2q       +;;++;+ooo                            ",
"                                                      ;111 qqq311oo1o12      ;;;;;+++o;                            ",
"                                                     ;111;  qyq111ooo1o1    ;;<<,;,:;;;                            ",
"                                                     o;11   qq33111oooo1    ;qq5;,<2q4;                            ",
"                                                    11;;1oo   qq33111oo    ;4qq5225q544                            ",
"                    rrrrr#                        1o111o1141    113111oy4  4qyrq4qqq544;                           ",
"                   orrrrrrrrrrrrr                11114111qqq     q311oqqy ;qyrrq4qqqq441                           ",
"XXo 1 o1 1oo11ee11118r9800rrrrr8r               1o;11qq1;;1y;    qqqooqqqy;4tyt44444441;                           ",
" XX XXo1ooooeoo1ooooor868808r09868e111          oo1q1qqq1  14     11o+oqqqyy4qqq444111;;                           ",
"           oooooooooor66999988868611oee11e      14111;1t4         qqo++oqqoq111111;ooooo                           ",
"           o 11ooooo$r66888866666ooo1111e11e1 oo1t4qy   4o             +ooe4;ooooooooooo                           ",
"                .   0r8988888886$ooooooooooo11111o4e14r11eo1oo1o        ,1:oooooooooooo1e                          ",
"                    rr09099989881oooooooooooooo111oooo1yoooe111e1;       :-&oooooooooooooo                         ",
"        r         rrr0088880999961oo  o oooooooo1ooooooqqooyq1yy1y11e    o::oooooooooooo1q                         ",
"        rr 8  X  rrr0988999988886          o ooooooooo1q1qqtqrqq411eo14   o:ooooooooooo;;q;                        ",
"         rrrrrrrrr0rrrr000r000909                    111o1qq1q1qqqoooooo  ::ooooooooo  o;4q                        ",
"          rrrrrrrrrrr00000r9rrr0r0            rr      o1o;1111q11111oooo   ::oooooooo  o;1q                        ",
"           rrrrrrrrrrrrr00000999890@        rrr          oo;;ooooo;ooqo    1::&ooo     oo;;1                       ",
"           rrrrrrrrrr0000000rr98088@       rrrr            ;ooooo;ooo14     1::oo      ooo;1                       ",
"            9rr09rrrr0000000000000090009rrr0rr                   o1          111       oo;4q1                      ",
"             6rrr08999900999000009000000rr0rr                                           oo4q;                      ",
"               rrrr88888899900000r90000rr0r                                             ooo;o                      ",
"                 rrrrr000888888999r000rr0r                                              ;ooo                       ",
"                 6rrrr0rr00800889600rr0r                                               ;1oo;                       ",
"                   rrrrrrrrrrrrr086rr                                                  ;;oo                        ",
"                        rrrrrrrrrrr                                                    ;oo                         ",
"                                                                                       ;oo                         ",
"                                                                                      ;;o                          ",
"                                                                                      ;;1;                         ",
"                                                                                       1tq;1                       ",
"                                                                                        1qqq4;                     ",
"                                                                                          1t1qq                    ",
"                                                                                           ;o                      ",
"                                                                                                                   ",
"                                                                                                                   ",
"                                                                                                                   ",
"                                                                                                                   ",
"                                                                                                                   ",
"                                                                                                                   ",
"                                                                                                                   "
};
