/* XPM */
static char *_0867_e5824b7c7f289ddceb004038a9c847d4368023eb9b8e13fdc12183371b12dfca[] = {
/* columns rows colors chars-per-pixel */
"96 95 64 1 ",
"  c #FFFFFF",
". c #13131F",
"X c #381919",
"o c #2E291C",
"O c #3A3319",
"+ c #410E15",
"@ c #4D1E18",
"# c #60070B",
"$ c #750204",
"% c #7F0000",
"& c #4A3515",
"* c #453C15",
"= c #573D12",
"- c #5A2D24",
"; c #673B30",
": c #5D4E0E",
"> c #514512",
", c #64450E",
"< c #714C0B",
"1 c #68570B",
"2 c #7D5407",
"3 c #746107",
"4 c #7F6A04",
"5 c #7E4A3C",
"6 c #007F7F",
"7 c #4F4F5B",
"8 c #746A6D",
"9 c #976300",
"0 c #8B7300",
"q c #9C6854",
"w c #8B7F7F",
"e c #B1840D",
"r c #C4910A",
"t c #7F7F8B",
"y c black",
"u c black",
"i c black",
"p c black",
"a c black",
"s c black",
"d c black",
"f c black",
"g c black",
"h c black",
"j c black",
"k c black",
"l c black",
"z c black",
"x c black",
"c c black",
"v c black",
"b c black",
"n c black",
"m c black",
"M c black",
"N c black",
"B c black",
"V c black",
"C c black",
"Z c black",
"A c black",
"S c black",
"D c black",
"F c black",
/* pixels */
"                                                                                                ",
"                                                                                                ",
"                                                                                                ",
"                                                                                                ",
"                                                                                                ",
"                                                                                                ",
"                                                                                                ",
"                                                                                                ",
"                                                                                                ",
"                                                                                                ",
"                                                                                                ",
"                                                                                                ",
"                                                                                                ",
"                                                                                                ",
"                                                                                                ",
"                                                                                                ",
"                                                                                                ",
"                                                                                                ",
"                                                                                                ",
"                                                                                                ",
"                                                                                                ",
"                                                                                                ",
"                                                                                                ",
"                                                                                                ",
"                                                                                                ",
"                                                                                                ",
"                                                                                                ",
"                                                                                                ",
"                                                                                                ",
"                                                                                                ",
"                                                                                                ",
"                                                                                                ",
"                                                                                                ",
"                                                     ,w                                         ",
"                                                      9w        3                               ",
"                                                      14w     9rr94         9&                  ",
"                                                      &O4w   9rre004      99O                   ",
"                                                        =91w49re9004222,9e0Oo                   ",
"                                                        +>,q94ee94229914r>XO4&X                 ",
"                                                     r93OO;;@q941222-@99=+.X19990o              ",
"                                                    r93,OO&...=2<+...92X++XX,14444*             ",
"                                                    9333,,O.86+29+76.=&+++XXX&=,,44X            ",
"                                                    9933,,X..-5rw,X..=+++XXXXX@o=113            ",
"                                                    ,933,XO9;<9r9<&=,===X       ,&11O           ",
"                                                     93,,XO99@=q9&&,,&&2X       O,=23o          ",
"                                                     93,,XO19<=@@====&>X         &,=14          ",
"                                                     ,3,,X@-<=--$$==&&&O          &=,1,         ",
"                                                     933XX=;=$$$$$$25&X             O,1,        ",
"                                                     9,3XXX;XwwXw;w$@@O              =1,O       ",
"                                                     993XXX=;w;XXXX5$XX              ,2,&       ",
"                                               q      9,XXX;rXwXXwXw@XX              O<<,&      ",
"                                                qq    9,XXX+2=%$#5%XXX                <=&@      ",
"                                                 qqq  9,XXX@>1%%%@XXXX              @@-&&<<     ",
"                                                  qqqX95XXX&11>*OO@@Xo             ,12-X=<<X<   ",
"                                                   q-tXqr95 003*oXO&>o             999==24==<=  ",
"                                                    q-tXX99,000:*:004>            >r2&&299==&X= ",
"                                                    q-5ttX909900490004            1,  =999<92@@ ",
"                                                     rqottXwrw90000004&               4e<O,2<1= ",
"                                                      rrotttww90990041=               1   r91e- ",
"                                                        XXXtte4404441,&                  1, 1@  ",
"                                                         XX4ttt111,,=&&                         ",
"                                                         52,,ttt=&@@@XX                         ",
"                                                         5<&@X@@tXXXXXX                         ",
"                                                        -+@XXXXXXtXXXX-5                        ",
"                                                       -5-++XXXXXXXXX+@XX                       ",
"                                                       +@;@++XXXXXXXX++=1                       ",
"                                                       22-;X++XXXXXX+++&<                       ",
"                                                      OqqX+++++XXXX+++X&=&                      ",
"                                                      <0*XXX++++++++++X@=<                      ",
"                                                     @r4>OXXX++++++++++X=1                      ",
"                                                     9e,O+XX++++++++++XX,9&                     ",
"                                                    -<<,XXX+++++++++ ++XX1O                     ",
"                                                   @@XX&X++++  +++    +XXX                      ",
"                                                   ;@&XXXXXX          >&X&                      ",
"                                                   e5-,XX++           ,&X                       ",
"                                                  1r9=@X++            >@&                       ",
"                                                  10&@X++             >+                        ",
"                                                  O2XX+X             >&                         ",
"                                                   ;X++              o,9,                       ",
"                                                   O&X                &999                      ",
"                                                   O,&X                O104=                    ",
"                                                    =,X                  9,4                    ",
"                                                    &9&                                         ",
"                                                     &=                                         ",
"                                                     &3=                                        ",
"                                                     *44                                        ",
"                                                     104>                                       ",
"                                                    0000O                                       ",
"                                                  ,44404                                        ",
"                                               141,99922                                        ",
"                                             ,<92e49999<                                        ",
"                                             999r==rr9                                          ",
"                                               rr=wrq;                                          ",
"                                               5O qO                                            ",
"                                                                                                "
};
