/* XPM */
static char *_6647_576367e469564f95367205e5835967002aa7b91dc5c1a9b00a064f49037c0ad9[] = {
/* columns rows colors chars-per-pixel */
"96 95 64 1 ",
"  c #FFFFFF",
". c #13131F",
"X c #381919",
"o c #2E291C",
"O c #3A3319",
"+ c #410E15",
"@ c #4D1E18",
"# c #60070B",
"$ c #750204",
"% c #7F0000",
"& c #4A3515",
"* c #453C15",
"= c #573D12",
"- c #5A2D24",
"; c #673B30",
": c #5D4E0E",
"> c #514512",
", c #64450E",
"< c #714C0B",
"1 c #68570B",
"2 c #7D5407",
"3 c #746107",
"4 c #7F6A04",
"5 c #7E4A3C",
"6 c #3B3B42",
"7 c #007F7F",
"8 c #454148",
"9 c #4C4C51",
"0 c #4F4F5B",
"q c #5E5E61",
"w c #5F5F6B",
"e c #686063",
"r c #746A6D",
"t c gray44",
"y c #976300",
"u c #8B7300",
"i c #9C6854",
"p c #8B7F7F",
"a c #B1840D",
"s c #C4910A",
"d c #7F7F8B",
"f c black",
"g c black",
"h c black",
"j c black",
"k c black",
"l c black",
"z c black",
"x c black",
"c c black",
"v c black",
"b c black",
"n c black",
"m c black",
"M c black",
"N c black",
"B c black",
"V c black",
"C c black",
"Z c black",
"A c black",
"S c black",
"D c black",
"F c black",
/* pixels */
"                                                                                                ",
"                                                                                                ",
"                                                                                                ",
"                                                                                                ",
"                                                                                                ",
"                                                                                                ",
"                                                                                                ",
"                                                                                                ",
"                                                                                                ",
"                                                                                                ",
"                                                                                                ",
"                                                                                                ",
"                                                                                                ",
"                                                                                                ",
"                                                                                                ",
"                                                                                                ",
"                                                                                                ",
"                                                                                                ",
"                                                                                                ",
"                                                                                                ",
"                                                                                                ",
"                                                                                                ",
"                                                                                                ",
" i5                                                                                             ",
"  i555                                                                                          ",
"   iii555                                                                                       ",
"     i;-555                                                                                     ",
"       i;d5555                                                                                  ",
"        i;dX5555                                                                                ",
"         ;;dt;5555dd                                                                            ",
"          iiddti;5qddd                                                                          ",
"            i;ddXq6qqddd                                                                        ",
"             it-dt666qqddd                                                                      ",
"              ittddt666qtddd                         ,p                                         ",
"               p9t6ddt66qqppd                         yp        3                               ",
"                p66t9dt666qq6d                        14p     yssy4         y&                  ",
"                 pw666ddt666qd                        &O4p   yssauu4      yyO                   ",
"                  9qq66tddt66-                          =y1p4ysayuu4222,yauOo                   ",
"                    pqq8tddt@@--                        +>,iy4aay422yy14s>XO4&X                 ",
"                     9pttttddt5i--                      3O;;@iy41222-@yy=+.X1yyyuo              ",
"                      9epeittdtt;5--                    :O&...=2<+...y2X++XX,14444*             ",
"                        9p8iitddtt55-                   >,O.r7+2y+07.=&+++XXX&=,,44X            ",
"                         q   iitddt55--                 ,,X..-5sp,X..=+++XXXXX@o=113            ",
"                               ittdtt;5--   yy         y,XOy;<ysy<&=,===X       ,&11O           ",
"                                 itddt@@5--,,&        ,,XXOyy@=iy&&,,&&2X       O,=23o          ",
"                                  ii;dd-;55-,=&X     y,XXXO1y<=@@====&>X         &,=14          ",
"                                    iiid;;55X&@X   yy2XXXX@-<=--$$==&&&O          &=,1,         ",
"                                      iid--Xp;@XX@X=&&XXXX=;=$$$$$$25&X             O,1,        ",
"                                        ii-s@X@@==@@X&XXX  ;XppXp;p$@@O              =1,O       ",
"                                          2u@@5i=X;XX+X    =;p;XXXX5$XX              ,2,&       ",
"                                          2y=y&&s;5X&&     ;sXpXXpXp@XX              O<<,&      ",
"                                          <y&&2yp&&&-      +2=%$#5%XXX                <=&@      ",
"                                          2X&<2i&s&&&5     @>1%%%@XXXX              @@-&&<<     ",
"                                           2X2<&2y&p;555   &11>*OO@@Xo             ,12-X=<<X<   ",
"                                            &2&&X2&yX;;;555 uu3*oXO&>o             yyy==24==<=  ",
"                                             22&X5&--@--@-555uu:*:uu4>            >s2&&2yy==&X= ",
"                                               &&2Xiii-@--;;55uu4yuuu4            1,  =yyy<y2@@ ",
"                                                  2    iii;--Xyuuuuuu4&               4a<O,2<1= ",
"                                                         iii-pyuyyuu41=               1   sy1a- ",
"                                                         O3asa44u4441,&                  1, 1@  ",
"                                                         1,4yyu111,,=&&                         ",
"                                                         y2,,,,==&@@@XX                         ",
"                                                         5<&@X@@XXXXXXX                         ",
"                                                        -+@XXXXXXXXXXX-5                        ",
"                                                       -5-++XXXXXXXXX+@XX                       ",
"                                                       +@;@++XXXXXXXX++=1                       ",
"                                                       22-;X++XXXXXX+++&<                       ",
"                                                      OiiX+++++XXXX+++X&=&                      ",
"                                                      <u*XXX++++++++++X@=<                      ",
"                                                     @s4>OXXX++++++++++X=1                      ",
"                                                     ya,O+XX++++++++++XX,y&                     ",
"                                                    -<<,XXX+++++++++ ++XX1O                     ",
"                                                   @@XX&X++++  +++    +XXX                      ",
"                                                   ;@&XXXXXX          >&X&                      ",
"                                                   a5-,XX++           ,&X                       ",
"                                                  1sy=@X++            >@&                       ",
"                                                  1u&@X++             >+                        ",
"                                                  O2XX+X             >&                         ",
"                                                   ;X++              o,y,                       ",
"                                                   O&X                &yyy                      ",
"                                                   O,&X                O1u4=                    ",
"                                                    =,X                  y,4                    ",
"                                                    &y&                                         ",
"                                                     &=                                         ",
"                                                     &3=                                        ",
"                                                     *44                                        ",
"                                                     1u4>                                       ",
"                                                    uuuuO                                       ",
"                                                  ,444u4                                        ",
"                                               141,yyy22                                        ",
"                                             ,<y2a4yyyy<                                        ",
"                                             yyys==ssy                                          ",
"                                               ss=psi;                                          ",
"                                               5O iO                                            ",
"                                                                                                "
};
