/* XPM */
static char *_8901_6d8924b2458e4db1ae46e0cd8dea4038fb08d6de4c4846480fc465fbbd477e71[] = {
/* columns rows colors chars-per-pixel */
"96 95 64 1 ",
"  c #FFFFFF",
". c #0F0F1B",
"X c #13131F",
"o c #381919",
"O c #2E291C",
"+ c #3A3319",
"@ c #1B1B27",
"# c #27272F",
"$ c #3E322C",
"% c #32323A",
"& c #33333B",
"* c #410E15",
"= c #4D1E18",
"- c #60070B",
"; c #750204",
": c #7F0000",
"> c #4A3515",
", c #453C15",
"< c #573D12",
"1 c #5A2D24",
"2 c #673B30",
"3 c #5D4E0E",
"4 c #514512",
"5 c #64450E",
"6 c #714C0B",
"7 c #68570B",
"8 c #7D5407",
"9 c #746107",
"0 c #7F6A04",
"q c #7E4A3C",
"w c #3B3B42",
"e c #3F3F4B",
"r c #007F7F",
"t c #454148",
"y c #4C4C51",
"u c #4F4F5B",
"i c #514B51",
"p c #5E5E61",
"a c #5F5F6B",
"s c #686063",
"d c #746A6D",
"f c #6F6F7B",
"g c gray44",
"h c #976300",
"j c #8B7300",
"k c #9C6854",
"l c #8B7F7F",
"z c #B1840D",
"x c #C4910A",
"c c #7F7F8B",
"v c black",
"b c black",
"n c black",
"m c black",
"M c black",
"N c black",
"B c black",
"V c black",
"C c black",
"Z c black",
"A c black",
"S c black",
"D c black",
"F c black",
/* pixels */
"                                                                                                ",
"                                                                                                ",
"                                                                                                ",
"                                                                                                ",
"                                                                                                ",
"                                                                                                ",
"                                                                                                ",
"                                                                                                ",
"                                                                                                ",
"                                                                                                ",
"                                                                                                ",
"                                                                                                ",
"                                                                                                ",
"                                                                                                ",
"                                                                                                ",
"                                                                                                ",
"                                                                                                ",
"                                                                                                ",
"                                                                                                ",
"                                                                                                ",
"                                                                                                ",
"                                                                                                ",
"                                                                                                ",
"                                                                                                ",
"   1*                                                                                           ",
"   X2=                                                                                          ",
"    o12                                                                                         ",
"     ooq*                                                                                       ",
"      o=2=                                                                                      ",
"       =oq2o                                                                                    ",
"       *o=2ko                                                                                   ",
"  c     o=o2kq                                                                                  ",
" wc      1oo=2kll%                                                                              ",
" wll      1ooo=1ll#                                                                             ",
" wlci     .oooooicl#                                                                            ",
" wllle      ooooyagl#                                 hO                                        ",
" wlllcl     %$$wtwydl#                                5jO       9<                              ",
" wllllll#   ldywtpyygl#                               o4h      xxz0<        5h                  ",
"  llllllccllllgywyppggl#                               540    xxxhjj<     5z4O                  ",
"  pclllllgllffgpywypylgl#                              4+h7kk0zxhjj008858hz44                   ",
"   lflllllllsyygpyyyyygplw                              4*76kh0zzh088h87hh+=7                   ",
"   lcplllllglgyygpyyttyyyl                             +3*>82=kh078881>h8o*=5+                  ",
"   wlfylllldgggpygpyytwywy                             9,4*51%%<86*%ooho***><0O                 ",
"    lcypldglggggppspyywww2k                           5h5++1Xdr*8h*urX<>**=>>74                 ",
"    pcyypdggggglgpyspyt$==1k                          xh5o*1XXXXxl5XXX<**o>><<7                 ",
"    wllyypgggggslgpysi1o===q2                         xh9oo>h26hxh6><5<<o>05<<<+                ",
"     lllyygpggggplgpyt1=o==1k1                        <h5oo>hh=<kh>>55>>>*8j7<>>                ",
"     wllgyyspgglsplgpw =oo=12kq                       o55=o>7h6<==<<<<>4+  8j75>o               ",
"      pllgypppgglppld    oo==2q                       +5<=o;16<11;;<<>>oO   8jq<=O              ",
"       pclgypgggglypl     o===2q                       <<=o>2<;;;;;;:q>+     <02<5O             ",
"        plggysgggggyg      ===o2q                      >>oo<2ollol2l;==O      <82<0             ",
"         pllgysggggpy@      ==o=22                     oooo<=2l2ooooq;o         85<7            ",
"          pclgysgpggpw       =oo12ko                  8>ooo>h:oloolol=+O         855>           ",
"           pclgyplpggg#       =o==1ko   0            8h<oo* <6qq;-q:o+,          07=<+          ",
"            pllpwcggggg        oo112q   xx6         0z6=o*  ,81122=o++O          085<=+         ",
"             pdyggggggga        o=112q* 5h5+      <hz8=oo   077,++>++,           507<o+         ",
"              ywlcggggggg    y   o=2=2qo 5<>     <hz6=oo   5jjj3,3jj09            7755<         ",
"                 lclggpggagfcl    ==oo=qoo>>    >881oo#   +jhhjj0hjjj0             555<o        ",
"                   wcldgldddc      ooo=1l>==o  486=ooo    0hxlhjjjjjj0>            555>o        ",
"                                    o==xx2ooo=797>o=     Ojxllhjhhjj07<            6<<=         ",
"                                    o15hj=q=oo75>oo      +9zxz00j00075>            02=o         ",
"                                     18h<==k<o==o=       750hhj77755<>>            52=o         ",
"                                     =6=<hxx1ooo*        h85555<<>===oo            >q=o         ",
"                                     =o>6hzh122o*       *q6>=o==ooooooo            >2=>         ",
"                                      oo5hhhlxqo=      21*ooooooooooooo            >7>>         ",
"                                      >=>58hxh11>     o221**ooooooooo*o            >6<o         ",
"                                       >>o6h8>jx1     *==2o**oooooooo**h1          >6=*         ",
"                                        ooo8<hx521    *k8o=***oooooo**,9h          >6=o         ",
"                                          =o18hooqo   +h9o*****oooo***,5ho         82<o         ",
"                                           =o<1=o=1o  hj,+**********o*o+o>o        86<+         ",
"                                            o+*2o=121>j9,o*************o+0h        h5=o         ",
"                                               *2===1504+oo************oo7h>      <2>=o         ",
"                                                *2==16j<*o********** **oo*O*     +h8<o>         ",
"                                                 *2==o<>oo**   ***     oo*o*     0j05=o<        ",
"                                                  *2=<>oo*o            >=*o     <jj05<o>        ",
"                                                   *21<o**            75=o      jzjj0<o>        ",
"                                                   j5==**             7>o      <zjhjj<o>        ",
"                                                   01o*o              7=*      jz0j005<o+       ",
"                                                   +1**               >*      5xj1hj07<><o      ",
"                                                    5o               +o<+    2zzq20718><=o      ",
"                                                    6>o               5zh+5  hh5+h0<26<67<      ",
"                                                    o5=                5hhj0O55>1x7<z057j<      ",
"                                                     h>*                 5z8z5> <h7*h8>765      ",
"                                                     ><*                  +*O+* 95> z7o*h7      ",
"                                                     >9<                       +5>  45o 05>     ",
"                                                     >09+                      ++*  75*  57>    ",
"                                                    ohjj>                           j5+  475    ",
"                                                   +j0j0                            49O   O     ",
"                                                >400007h                                        ",
"                                               <h78jhhh6                                        ",
"                                             q7hhh08zh6                                         ",
"                                              z<xhoxxh                                          ",
"                                                x>ox2                                           ",
"                                                   $                                            ",
"                                                                                                "
};
