/* XPM */
static char *_9582_a3bbbd73b0c35087e2235e2951f8773bd04dba7ef09a6d9a4aeb6bc53adc60e8[] = {
/* columns rows colors chars-per-pixel */
"96 95 64 1 ",
"  c #FFFFFF",
". c #13131F",
"X c #381919",
"o c #2E291C",
"O c #3A3319",
"+ c #171723",
"@ c #27272F",
"# c #3E322C",
"$ c #32323A",
"% c #33333B",
"& c #410E15",
"* c #4D1E18",
"= c #60070B",
"- c #750204",
"; c #7F0000",
": c #4A3515",
"> c #453C15",
", c #573D12",
"< c #5A2D24",
"1 c #673B30",
"2 c #5D4E0E",
"3 c #514512",
"4 c #64450E",
"5 c #714C0B",
"6 c #68570B",
"7 c #7D5407",
"8 c #746107",
"9 c #7F6A04",
"0 c #7E4A3C",
"q c #3B3B42",
"w c #007F7F",
"e c #454148",
"r c #4C4C51",
"t c #4F4F5B",
"y c #514B51",
"u c #5E5E61",
"i c #5F5F6B",
"p c #686063",
"a c #746A6D",
"s c #6F6F7B",
"d c gray44",
"f c #976300",
"g c #8B7300",
"h c #9C6854",
"j c #8B7F7F",
"k c #B1840D",
"l c #C4910A",
"z c #7F7F8B",
"x c black",
"c c black",
"v c black",
"b c black",
"n c black",
"m c black",
"M c black",
"N c black",
"B c black",
"V c black",
"C c black",
"Z c black",
"A c black",
"S c black",
"D c black",
"F c black",
/* pixels */
"                                                                                                ",
"                                                                                                ",
"                                                                                                ",
"                                                                                                ",
"                                                                                                ",
"                                                                                                ",
"                                                                                                ",
"                                                                                                ",
"                                                                                                ",
"                                                                                                ",
"                                                                                                ",
"                                                                                                ",
"                                                                                                ",
"                                                                                                ",
"                                                                                                ",
"                                                                                                ",
"                                                                                                ",
"                                                                                                ",
"                                                                                                ",
"                                                                                                ",
"                                                                                                ",
"                                                                                                ",
"                                                                                                ",
" +*                                                                                             ",
"  +<                                                                                            ",
"   .1&                                                                                          ",
"    X<1                                                                                         ",
"     XX1&                                                                                       ",
"      X*1X                                                                                      ",
"       *X01                                                                                     ",
"        X*1hX                                                                                   ",
"  r      *X1h<                                                                                  ",
"  z@     <XX*11Xj%                                                                              ",
"  jj      XXXX*<jj@                                                                             ",
"  jzy      XXXXXyzj@                                 48                                         ",
"  jjj@      XXXXridj@                                 f8        8                               ",
"  jjjzj+     ##qeqraj@                                694     fllf9         f:                  ",
"  jjjjjj     arqeurrdj@                               :O9:X  fllkgg9      ffO                   ",
"  ujjjjjzrjjjjdrqruuddj@                               3,f6j9flkfgg97774fkgOo                   ",
"  qzjjjjjdjjssdurqrurjdj@                              3&34hf9kkf977ff69l3XO9:X                 ",
"   jsjjjjjjjprrdurrrrrdujq                             OO&11*hf96777<*ff,&.X6fffgo              ",
"   qzujjjjjdjdrrdurreerrrj                             32&:<%%,75&%XXf7X&&XX469999>             ",
"    jsrjjjjadddurdurreqrqr                             83XO.aw&7f&tw.,:&&&XXX:,4499X            ",
"    jzrujadjdddduupurrqqq1h                           4f4&*....lj4X..,&&&XXXXX*o,668            ",
"    qzrruadddddjdurpure#**<1                          lf4XOf15flf5:,4,,,X       4:66O           ",
"     jjrrudddddpjdurpy<X***01                         lf8XOff*,hf::44::7X       O4,78o          ",
"     uzjrrduddddujdure<*X**<h<                        ,f4XO6f5,**,,,,:3X         :4,69          ",
"      jjdrrpuddjpujduq *XX*<1h<                       X44**<5,<<--,,:::O          :,464         ",
"      ujjdruuuddjuuja    XX**10                       O4,*,1,------70:X             O464        ",
"       uzjdruddddjruj     X***11                       ,,*X1XjjXj1j-**O              ,64O       ",
"        ujddrpdddddrd      ***X10                      ::XX,1j1XXXX0-XX              474:       ",
"         ujjdrpddddur       X*X*11                    XXXXX1lXjXXjXj*XX              O554:      ",
"          uzjdrpdudduq       *XX<11X                  7:XX*&7,;-=0;XXX                5,:*      ",
"           uzjdrujuddd        *X**<hX                7f,X&&*36;;;*XXXX              **<::55     ",
"            ujjuqzddddd        XX<<10   9f:         7k5XX& :663>OO**Xo             467<X,55X5   ",
"             uardddddddi        X*<<10  Of4O       fk7*X&   gg8>oXO:3o             fff,,79,,5,  ",
"              rqqzddddddd        X*1*10X 4,:      fk5*X&   4ggg2>2gg93            3l7::7ff,,:X, ",
"                 jzjdduddjdrzj    **XX*0X ::     77<XX&   Ogffgg9fggg9            64  ,fff5f7** ",
"                   qzjadjaaaz      XXX*<jX**X   75:XX&    9fljfgggggg9:               9k5O4756, ",
"                                    X**ll1XXXX 86:X*&    ogljjfgffgg96,               6   lf6k< ",
"                                     <4fg*0*XX64:XX&     O8klk99g99964:                  64 6*  ",
"                                     <7f,**h,X**X*&      649ffg66644,::                         ",
"                                     *5*4fll<XXX&&       f74444,,:***XX                         ",
"                                     *X:5fkf<11X&        05:*X**XXXXXXX                         ",
"                                      XX4fffjl0X*       <&*XXXXXXXXXXX<0                        ",
"                                       *:47flf<<:      <0<&&XXXXXXXXX&*XX                       ",
"                                        :X5f7,gl<      &*1*&&XXXXXXXX&&,6                       ",
"                                         XX7,fl41<     77<1X&&XXXXXX&&&:5                       ",
"                                          *X<7fXX0X   OhhX&&&&&XXXX&&&X:,:                      ",
"                                           *X,<*X*<1  5g>XXX&&&&&&&&&&X*,5                      ",
"                                            XO&1X*<1<*l93OXXX&&&&&&&&&&X,6                      ",
"                                                1***<fk4O&XX&&&&&&&&&&XX4f:                     ",
"                                                 1**<554XXX&&&&&&&&& &&XX6O                     ",
"                                                  1**XX:X&&&&  &&&    &XXX                      ",
"                                                   1*:XXXXXX          3:X:                      ",
"                                                   k0<4XX&&           4:X                       ",
"                                                  6lf,*X&&            3*:                       ",
"                                                  6g:*X&&             3&                        ",
"                                                  O7XX&X             3:                         ",
"                                                   1X&&              o4f4                       ",
"                                                   O:X                :fff                      ",
"                                                   O4:X                O6g9,                    ",
"                                                    ,4X                  f49                    ",
"                                                    :f:                                         ",
"                                                     :,                                         ",
"                                                     :8,                                        ",
"                                                     >99                                        ",
"                                                     6g93                                       ",
"                                                    ggggO                                       ",
"                                                  4999g9                                        ",
"                                               6964fff77                                        ",
"                                             45f7k9ffff5                                        ",
"                                             fffl,,llf                                          ",
"                                               ll,jlh1                                          ",
"                                               0O hO                                            "
};
