/* XPM */
static char *_96_6afeecb34b55aed82986fbc2cae36223589228afdf6ae1752bb69784dc5acd51[] = {
/* columns rows colors chars-per-pixel */
"96 95 64 1 ",
"  c #FFFFFF",
". c #0F0F1B",
"X c #13131F",
"o c #381919",
"O c #2E291C",
"+ c #3A3319",
"@ c #171723",
"# c #1B1B27",
"$ c #27272F",
"% c #3E322C",
"& c #32323A",
"* c #33333B",
"= c #410E15",
"- c #4D1E18",
"; c #60070B",
": c #750204",
"> c #7F0000",
", c #4A3515",
"< c #453C15",
"1 c #573D12",
"2 c #5A2D24",
"3 c #673B30",
"4 c #5D4E0E",
"5 c #514512",
"6 c #64450E",
"7 c #714C0B",
"8 c #68570B",
"9 c #7D5407",
"0 c #746107",
"q c #7F6A04",
"w c #7E4A3C",
"e c #3B3B42",
"r c #007F7F",
"t c #454148",
"y c #4C4C51",
"u c #4F4F5B",
"i c #514B51",
"p c #5E5E61",
"a c #5F5F6B",
"s c #686063",
"d c #746A6D",
"f c #6F6F7B",
"g c gray44",
"h c #976300",
"j c #8B7300",
"k c #9C6854",
"l c #8B7F7F",
"z c #B1840D",
"x c #C4910A",
"c c #7F7F8B",
"v c black",
"b c black",
"n c black",
"m c black",
"M c black",
"N c black",
"B c black",
"V c black",
"C c black",
"Z c black",
"A c black",
"S c black",
"D c black",
"F c black",
/* pixels */
"                                                                                                ",
"                                                                                                ",
"                                                                                                ",
"                                                                                                ",
"                                                                                                ",
"                                                                                                ",
"                                                                                                ",
"                                                                                                ",
"                                                                                                ",
"                                                                                                ",
"                                                                                                ",
"                                                                                                ",
"                                                                                                ",
"                                                                                                ",
"                                                                                                ",
"                                                                                                ",
"                                                                                                ",
"                                                                                                ",
"                                                                                                ",
"                                                                                                ",
"                                                                                                ",
"@                                                                                               ",
"@@                                                                                              ",
" @-                                                                                             ",
"  @2                                                                                            ",
"   X3=                                                                                          ",
"    o23                                                                                         ",
"     oo3=                                                                                       ",
"      o-3o                                                                                      ",
"       -ow3                                                                                     ",
"       =o-3ko                                                                                   ",
"  y      -o3k2                                                                                  ",
"  c$     2oo-33ol*                                                                 17,+         ",
"  ll      oooo-2ll$                                  h                            -7,,7o        ",
"  lci     .oooooicl$                                 6h                         -73--79,        ",
"  lll$      ooooyagl$                                 qj        xq+          8 q9h9,111,77o     ",
"  lllcl@     %%eteydl$                                h5h     xxzhj1       hqO hh89,9hq,-,-o    ",
"  llllll     dyetpyygl$                               +,qq3k6zxxhjjq8+   hz5+  xho,9hhh78,--o   ",
"  plllllcyllllgyeyppggl$                               4=h8lhqzzhq99hh98zh5+O  o,o,xz989h17,o   ",
"  eclllllgllffgpyeypylgl$                              5oo33-khq8999278hho,,hxxz11hxh58h9h7-    ",
"   lflllllllsyygpyyyyygple                             +5=-2**197=*oohh2==-lxzhh89zhh0zhhx99,   ",
"   ecplllllglgyygpyyttyyyl                             +<+,Xdrr9h=urX1,===okk7,<+7hhq17lhzh7    ",
"    lfylllldgggpygpyyteyey                             05=,XXXwxl6XXX1===oooo15<Oooooo-811-o    ",
"    lcypldglggggppspyyeee3k@                          6h6=oh37hxh7,1611=ooo+OO     ooooooo=     ",
"    ecyypdggggglgpyspyt%--23                          xh6o+hh-1kh,,66,,ho+O            ==       ",
"     llyypgggggslgpysi2o---w3                         xh0o+8h71--1111,51+                       ",
"     pclyygpggggplgpyt2-o--2k2                        1h6o,27122::11,,<oO                       ",
"      llgyyspgglsplgpe -oo-23k2                       o66--31::::::9w,-+                        ",
"      pllgypppgglppld    oo--3w                       +61--3ollol3l:--oO                        ",
"       pclgypgggglypl     o---33                       11-o23l3oooow:,+                         ",
"        plggysgggggyg      ---o3w                      ,,oo7loloolol-oo                         ",
"         pllgysggggpy#      o-o-33                     oooo1hwl:;w>oooo                         ",
"          pclgysgpggpe       -oo233o                  9,oo =17333-oooo                          ",
"           pclgyplpggg$       -o--2ko                9h1o=  55oooooooo                          ",
"            pllpecggggg        oo223w   qh,         9z7-o   885<++--oO                          ",
"             pdyggggggga        o-223w  +h6+       hz9-o    jj0<Oo+,5O                          ",
"              yeecggggggg        o-3-3wo 61,      hz7-o    6jjj4<4jjq5                          ",
"                 lclggpgglgycl    --oo-wo ,,     992oo    +jhhjjqhhjjq                          ",
"                    cldgldddc      ooo-2lo--o   97,oo     qhxlhjjjjjjq,                         ",
"                                    o--xx3oooo 08,o-     Ojxllhjhhjjq81                         ",
"                                     26hj-w-oo86,oo      +0zxzqqjqqq86,                         ",
"                                     29h1--k1o--o-       86qhhj888661,,                         ",
"                                     -7-6hxx2ooo=        h9666611,---oo                         ",
"                                     -o,7hzh233o=       =w7,-o--ooooooo                         ",
"                                      oo6hhhlxwo-      32=oooooooooooo2w                        ",
"                                       -,69hxh22,      332==ooooooooo=-o-                       ",
"                                        ,o7h9,jx2     h--3o==oooooooo==3h                       ",
"                                         oo91hx632   qhk9o-====ooooo==+<h,                      ",
"                                          -o29hoowo 1xqk8=========o===o5qh                      ",
"                                           -o12-o-2wxzq15+==========oo=+6h                      ",
"                                            o+=3o-23hj6ooo===========oo-,,1                     ",
"                                               =3---28,oooo=o=========ooo,6                     ",
"                                                =3--27oooo=   ======= =o+qh2                    ",
"                                                 =3--oo=o=     ===     oo8h,                    ",
"                                                  =3-,o                =o=O=                    ",
"                                                   332+                +o=o                     ",
"                                                   +,-=               O6oo,                     ",
"                                                   +6o                O,o-                      ",
"                                                    11o               5-o                       ",
"                                                    ,8o               5o=                       ",
"                                                     9,              ++o                        ",
"                                                     q6=             5+1+                       ",
"                                                     jq6              6zh+6                     ",
"                                                    8jj8               6hhjqO                   ",
"                                                   6jqj1                 6z9hh                  ",
"                                                  8jj6h+                  +=                    ",
"                                               9q9j9hhh                                         ",
"                                             zhhhh1zh97                                         ",
"                                             w2hx1wxx3                                          ",
"                                               3z=lh2                                           ",
"                                                  %                                             ",
"                                                                                                ",
"                                                                                                ",
"                                                                                                ",
"                                                                                                "
};
