/* XPM */
static char *_7921_d5ea17c71b7d717dc625a717de1a242b9ac21d526c1263de16d08ba9c6e8811a[] = {
/* columns rows colors chars-per-pixel */
"115 68 64 1 ",
"  c #FFFFFF",
". c #0F0F1B",
"X c #13131F",
"o c #381919",
"O c #2E291C",
"+ c #3A3319",
"@ c #27272F",
"# c #3E322C",
"$ c #2B2B33",
"% c #32323A",
"& c #410E15",
"* c #4B0C12",
"= c #4D1E18",
"- c #60070B",
"; c #750204",
": c #7F0000",
"> c #4A3515",
", c #453C15",
"< c #573D12",
"1 c #5A2D24",
"2 c #673B30",
"3 c #5D4E0E",
"4 c #514512",
"5 c #64450E",
"6 c #714C0B",
"7 c #68570B",
"8 c #7D5407",
"9 c #746107",
"0 c #7F6A04",
"q c #7E4A3C",
"w c #3B3B42",
"e c #076063",
"r c #007F7F",
"t c #4C4C51",
"y c #514B51",
"u c #5E5E61",
"i c #686063",
"p c gray44",
"a c #976300",
"s c #8B7300",
"d c #9C6854",
"f c #8B7F7F",
"g c #B1840D",
"h c #C4910A",
"j c #7F7F8B",
"k c black",
"l c black",
"z c black",
"x c black",
"c c black",
"v c black",
"b c black",
"n c black",
"m c black",
"M c black",
"N c black",
"B c black",
"V c black",
"C c black",
"Z c black",
"A c black",
"S c black",
"D c black",
"F c black",
/* pixels */
"                                                                                                                   ",
"                                                                                                                   ",
"                                                                                                                   ",
"                                                                                                                   ",
"                                                                                                                   ",
"                                                                                                                   ",
"                                                                                                                   ",
"                                                                                             66,,                  ",
"                                                                                            o6,,6o                 ",
"                                                                                          o>6oo66,                 ",
"                                                                                         9566,666,66o              ",
"                                                                                         a056,6a9,o,oo             ",
"                                                                                         h5<,6aaa69,ooo            ",
"                                                                                         55<,hg696a66,o            ",
"                                                                                      ah7755aha,9a6a6o             ",
"                                                                                   oofhgs977gaa9gaah66,            ",
"                                                                                   oood654455a966faga6             ",
"                                                                                   oo=>6+OO+>>ooo966oo             ",
"                                                                       ;;;         oo,O,O   ..oooooo5    O         ",
"                                                                   ;;ho;;;;;;;;    oo.          ..o>6   5O         ",
"                                                                  a;o;oo;;;;;;;;   O               6&   55         ",
"                                                                 oo1o;oooo;;;;;;;;O  a               8  74         ",
"                                                                ,,o==o;;:oo;;;;;;;oofh               8qq454        ",
"                                                      96        ,,,+%oo;;;;;oo;;;;oood               qda000        ",
"                                                   ,,6t6@ @     9,o++=77;;;;;;;;>;oo=>6              >ssagg        ",
"                                                  $66tffff@t   6a6>++><67;;;;;;;oooo,O,           &  8ghggggha     ",
"                                 oo 1&1 & 1 ooo66 jjfffffiffff@ha6<><<788;;;,,,ooooo.               7sggggggaa     ",
"                                  2 1=11qq1qqdqoooooowptiiitfufha96ao<788aa;;;;,,,O  h   h         57ggg8asss7     ",
"                                      fffo=fffffqfoqqooooootwtw6a66<6<6a6aaa3,;aa9, hh  hh       4;>sssoggs005     ",
"                                       offfffffffffffpffftqooooo66<<<><,9aaaa9;;a99 0s  00       4<5799Xgaa555a  > ",
"                                           6fffffffff,6ffffffufff6>o>++9ahfa9a;;;99,67 557a     7:686XeXXa27>>=aao ",
"                                           6oofffffff966fffffffff6oo++,ahffa;h;;;99666oo6o67   7:::8s6XrXa2y2==768 ",
"                                                 oofff96,fffffffff++++,9ghg;;;;;;96,666ooo6o6 7::::68>X<X4y12><>o >",
"                                                       ,,  offffffffoo969aaa;;;;66,,8666oooo6  :::::a6>>a7XXX67&7> ",
"                                                         6@        oooooo66666,oooooa88666oo   6*1ff:a>hhXrXX5     ",
"                                                       oo,6        oooooooooooooo    668666o   :ff11:oqhhXo>X      ",
"                                                        ,o66        ooooooooooooo  44 a866oa   fd&&dd=>ggO =       ",
"                                                        6666         oooooooooooo=>44>aaaoo     f1&dff<o5          ",
"                                                        ,99669       ,oooooooooooooo>> 66o+    -d1ffff&o           ",
"                                                          9669        ooooooooo,oooo4>4aa      ::f  1              ",
"                                                          96o69        ooooooo9,6,ooo          &:f                 ",
"                                                          ,,6699       ooo   aa996oooo                             ",
"                                                           ,,o666             oo o,6ooo   ooo6,,                   ",
"                                                            ,o66669               66oooooo,69999a6                 ",
"                                                             ,666666               66666,6a,,9aa9a6                ",
"                                                               o66ood               a9, 6o   ,a99aa                ",
"                                                               ,ooooo,666                     oa9aga               ",
"                                                               o   o,,6oo6                     ,9a6h6              ",
"                                                                      ooo666,69                 969hh#             ",
"                                                                        66oo6669aaaa6a669,,     ,9aoo              ",
"                                                                        o,oooo669a9a99ha66,     ,aaa,              ",
"                                                                             oooo6699669, o      6ahh              ",
"                                                                             6,,o6666go           96               ",
"                                                                                ,o,669ag,        dg                ",
"                                                                                 ,6666,o666,                       ",
"                                                                                  oo999ooo,9                       ",
"                                                                                 o66a6a   ,                        ",
"                                                                                    6969                           ",
"                                                                                      ,6,                          ",
"                                                                                      99,                          ",
"                                                                                      ,6                           ",
"                                                                                                                   ",
"                                                                                                                   ",
"                                                                                                                   ",
"                                                                                                                   ",
"                                                                                                                   ",
"                                                                                                                   ",
"                                                                                                                   "
};
