/* XPM */
static char *_179_e5abc34ca1b2a9c5dbece517204c320031087cdafcbe37304a89988c211da6c3[] = {
/* columns rows colors chars-per-pixel */
"96 95 64 1 ",
"  c #FFFFFF",
". c #13131F",
"X c #381919",
"o c #2E291C",
"O c #3A3319",
"+ c #27272F",
"@ c #3E322C",
"# c #2B2B33",
"$ c #32323A",
"% c #33333B",
"& c #410E15",
"* c #4D1E18",
"= c #60070B",
"- c #750204",
"; c #7F0000",
": c #4A3515",
"> c #453C15",
", c #573D12",
"< c #5A2D24",
"1 c #673B30",
"2 c #5D4E0E",
"3 c #514512",
"4 c #64450E",
"5 c #714C0B",
"6 c #68570B",
"7 c #7D5407",
"8 c #746107",
"9 c #7F6A04",
"0 c #7E4A3C",
"q c #3B3B42",
"w c #007F7F",
"e c #454148",
"r c #4C4C51",
"t c #4F4F5B",
"y c #5E5E61",
"u c #5F5F6B",
"i c #686063",
"p c #746A6D",
"a c #6F6F7B",
"s c gray44",
"d c #976300",
"f c #8B7300",
"g c #9C6854",
"h c #8B7F7F",
"j c #B1840D",
"k c #C4910A",
"l c #7F7F8B",
"z c black",
"x c black",
"c c black",
"v c black",
"b c black",
"n c black",
"m c black",
"M c black",
"N c black",
"B c black",
"V c black",
"C c black",
"Z c black",
"A c black",
"S c black",
"D c black",
"F c black",
/* pixels */
"                                                                                                ",
"                                                                                                ",
"                                                                                                ",
"                                                                                                ",
"                                                                                                ",
"                                                                                                ",
"                                                                                                ",
"                                                                                                ",
"                                                                                                ",
"                                                                                                ",
"                                                                                                ",
"                                                                                                ",
"                                                                                                ",
"                                                                                                ",
"                                                                                                ",
"                                                                                                ",
"                                                                                                ",
"                                                                                                ",
"                                                                                                ",
"                                                                                                ",
"                                                                                                ",
"                                                                                                ",
"                                                                                                ",
"                                                                                                ",
"   <&                                                                                           ",
"    1*                                                                                          ",
"    X*<                                                                                         ",
"     X*0                                                                                        ",
"      XX0<                                                                                      ",
"       *X01X                                                                                    ",
"        **1gX                                                                                   ",
"  r     XXX<11                                                                                  ",
" qh      *XX*11lh+                                                                              ",
" qhi      **XXXelh+                                  d                                          ",
" qlh#      XXXXXhsh+                                 48                                         ",
" qhhhr      XXXqrysh+                                 d8       O8O           d                  ",
" qhhhhh     %qqqrrrsh+                                694     dkkd9         d:                  ",
" qhhhhhs+   hhrqryyysh+                               :O9:   dkkjff9      ddO                   ",
"  hhhhhhhhhhhhyrrryyssh+                               3,d6h9dkjdff97774djfOo                   ",
"  ylhhhhhshirrsyreryyssh+                              3&34gd9jjd977dd69k3XO9:                  ",
"   hhhhhhhhhirrsyrrrrrirh+                             OO&11*gd96777<*dd,&.X6dddfo              ",
"   hhrhhhhhshsyrsyrreererr                             32&:<%%,75&%XXd7X&&XX469999>             ",
"   qlrrhhhhssssyyyyrreqqq1                             83XO.pw&7d&tw.,:&&&XXX:,4499             ",
"    hhryhsssssssyyiyreqqX10                           4d4&*...0kh4...,&&&XXXXX*o,668            ",
"    yhrrypssssshsyriye@*X*11                          kd4XOd15dkd5:,4,,,XOooX&  4:66O           ",
"    qlhrrssssssyhsyri1*****00                         kd8XOdd*,gd::44::7X       O4,78o          ",
"     hhhrrsyssssyhsyy <*X*<<gX                        ,d4XO6d5,**,,,,:3Xo        :4,69          ",
"     qhlsryyysshiyhsr  XXX*<1g<                       X44**<5,<<--,,:::O          :,464         ",
"      yllsryiysshryhq    X***<1                        4,*,1,------70:Xo            O464        ",
"       ylhsrisssshryq     **X*<g                       ,,*X1XhhXh1h-**O              ,64O       ",
"        ylhsrisssssrq      X<XX10                      ::XX,1h1XXXX0-XX              474:       ",
"         yhlsrisyssyi       *XX*11                     XXXX1kXhXXhXh*XX              O554:      ",
"          ylhsriiussi+       *X*<<gX                 ,d:XX &7,h-=0;XXX               &5,:*      ",
"           yllhrsssssh        *X*<10    9           ,dd:X&  36111*XXXX              **<::55     ",
"            yhsqhsssssy        X*<<10   kd,        7dd<XX   663>OO**Xo             467<X,55X    ",
"             yy%hssssssa        X*<<10& *44       dkd1XX    ff8>oXO:3o            Xddd,,79,,5,  ",
"              %  hhsssssa# %yl   **<X<1& ,:X     5d7:XX    4fff2>2ff93            3k7::7dd,,:X,X",
"                 qhhlsysshhlh     **XX*gXX*O    :7,XXX    Ofddff9dfff9            64& ,ddd5d7**X",
"                    qhhhhhhq       XXX1kj:XXX  67:XX&     9dkhdffffff9:               9j5O4756,X",
"                                    XXdk41*XX:96:XX      ofkhhdfddff96,               6X  kd6j< ",
"                                    X7dd**0*X:,:X&       O8jkj99f99964:                  64 6*  ",
"                                    X07,<dhkXXXX*        649ddf66644,::                         ",
"                                     X*,ddk71XXX         d54444,,:***XX                         ",
"                                     ::<ddd5<kXX         05:*X**XXXXXXX                         ",
"                                      :Xfd7kk11XX       <&*XXXXXXXXXXX<0                        ",
"                                       :*,fdj*<0X      10<&&XXXXXXXXX&**<                       ",
"                                         :773dk7<     o<*1*&&XXXXXXXX&&50                       ",
"                                          X,dddX1X   476,<1X&&XXXXXX&&X>d                       ",
"                                           X:,:X*1X  9df,X&&&&&XXXX&&&OX:5                      ",
"                                            ::<*X<<X df,XXXX&&&&&&&&X&XXX*                      ",
"                                              &1***1 4,XXXXXX&&&&&&&&XXXX49                     ",
"                                               &1<X<1XXXX&XX&&&&&&&&&&XXOdd                     ",
"                                                &1**XXXXX&&&&&&&&&&&&&&XX:9                     ",
"                                                 &1<XXXXXX&&   &&&    &XX&                      ",
"                                                  &1*4XXXX             XX&                      ",
"                                                   &*4,XX              O:X                      ",
"                                                     O4&&              O:X                      ",
"                                                     &4*X              3:X                      ",
"                                                      ::XX            O4*                       ",
"                                                      67*X            8:&                       ",
"                                                     9djdO           o3X                        ",
"                                                    ddjd:X           o:X69                      ",
"                                                  j9dd9:              Odjd9X                    ",
"                                               17,ddd>                 :djdd7&                  ",
"                                                @4dk:                    9dd9j,                 ",
"                                                  3O                       ddd,71               ",
"                                                                            k04@&               ",
"                                                                                                ",
"                                                                                                ",
"                                                                                                ",
"                                                                                                ",
"                                                                                                ",
"                                                                                                ",
"                                                                                                ",
"                                                                                                "
};
