/* XPM */
static char *_3025_92a0a8ff1e107dc53348ba7b4298ea2c031d7ed92dd8c31e4ddfa710d7e456a8[] = {
/* columns rows colors chars-per-pixel */
"96 95 64 1 ",
"  c #FFFFFF",
". c #13131F",
"X c #381919",
"o c #2E291C",
"O c #3A3319",
"+ c #410E15",
"@ c #4D1E18",
"# c #60070B",
"$ c #750204",
"% c #7F0000",
"& c #4A3515",
"* c #453C15",
"= c #573D12",
"- c #5A2D24",
"; c #673B30",
": c #5D4E0E",
"> c #514512",
", c #64450E",
"< c #714C0B",
"1 c #68570B",
"2 c #7D5407",
"3 c #746107",
"4 c #7F6A04",
"5 c #7E4A3C",
"6 c #3B3B42",
"7 c #007F7F",
"8 c #454148",
"9 c #4C4C51",
"0 c #4F4F5B",
"q c #514B51",
"w c #5E5E61",
"e c #686063",
"r c #746A6D",
"t c #6F6F7B",
"y c gray44",
"u c #976300",
"i c #8B7300",
"p c #9C6854",
"a c #8B7F7F",
"s c #B1840D",
"d c #C4910A",
"f c #7F7F8B",
"g c black",
"h c black",
"j c black",
"k c black",
"l c black",
"z c black",
"x c black",
"c c black",
"v c black",
"b c black",
"n c black",
"m c black",
"M c black",
"N c black",
"B c black",
"V c black",
"C c black",
"Z c black",
"A c black",
"S c black",
"D c black",
"F c black",
/* pixels */
"                                afa     @@@                                                     ",
"                               ayaa    p@@@                                                     ",
"                              aaaa     p@@@                                                     ",
"                             aawaa     p-@@                                                     ",
"                            aaawwa     p;@@                                                     ",
"                            aaywwa    pp-@@                                                     ",
"                           afywawa    pXX@@                                                     ",
"                           aaywwwaaa  p-X@@                                                     ",
"                          aayaw9wwaeaar-XX@                                                     ",
"                          ayyawrwwaatyaaaaay                                                    ",
"                         aaarywywwyyyyyyyyff                                                    ",
"                         aayywwwwwyww9698yff                                                    ",
"                         ayaywwwwwyyyww9wrff                                                    ",
"                        aayyywwywwa9yw6wyfff                                                    ",
"                        aayy9wyywwwwy699aaff                                                    ",
"                        aayyywyywwww9e88yyaf                                                    ",
"                        aayyywyawwyw9689yyff                                                    ",
"                        aayywyyywwawq966yaff                                                    ",
"                        aayywfyywwr   p699af                                                    ",
"                        aayywwywwa    p699f                                                     ",
"                        aayywyy y     @@@@@                                                     ",
"                        aayywyyy6     @-@@5                                                     ",
"                        aaawayy       @-@-5                                                     ",
"                        aaawyy        @-@-                                                      ",
"                         aawyy       p@-@5                                                      ",
"                         aaayy       p@--@                                                      ",
"                          aayy       p@@-@                                                      ",
"                           aaa       p@@@5                                                      ",
"                            aa       p@@@5                                                      ",
"                             aa      p@@@                                                       ",
"                              a      p@-@                                                       ",
"                                     p@@5                                                       ",
"                                    p-@@5                                                       ",
"                                    p-@-5            ,a                                         ",
"                                    p5@-5             ua        3                               ",
"                                    p@-5 uu           14a     uddu4         u&                  ",
"                                    5@-5XOOu          &O4a   uddsii4      uuO                   ",
"                                  ssssss,,uu            =u1a4udsuii4222,usiOo                   ",
"                                 2sssi2s2uu             +>,pu4ssu422uu14d>XO4&X                 ",
"                                8u<@ui@;2               3O;;@pu41222-@uu=+.X1uuuio              ",
"                                8u<@1@XX@               :O&...=2<+...u2X++XX,14444*             ",
"                                ;<&<uuu@X              3>,O.r7+2u+07.=&+++XXX&=,,44X            ",
"                                2<Xudud@XX-           ,u,,X..-5da,X..=+++XXXXX@o=113            ",
"                                ;Xusud-d2-2u          du,XOu;<udu<&=,===X       ,&11O           ",
"                               8;2uu-;X-X2uuuu      u,,,XXOuu@=pu&&,,&&2X       O,=23o          ",
"                               81uu--d5-X@,1<22uuuuuuu,XXXO1u<=@@====&>X         &,=14          ",
"                               8u---u22XXXX1<&--s2s2u2XXXX@-<=--$$==&&&O          &=,1,         ",
"                               8--uu---XXXXXXXX<@2<=&&XXXX=;=$$$$$$25&X             O,1,        ",
"                                u<2--dd     XXXXXXXXX&XXXXX;XaaXa;a$@@O              =1,O       ",
"                                2<=222@          XXXXXXX&  =;a;XXXX5$XX              ,2,&       ",
"                                 up2@@@                    ;dXaXXaXa@XX              O<<,&      ",
"                                  p@@@@                    +2=%$#5%XXX                <=&@      ",
"                                  p@@-@                    @>1%%%@XXXX              @@-&&<<     ",
"                                  p@@@5                    &11>*OO@@Xo             ,12-X=<<X<   ",
"                                  p@@@5                     ii3*oXO&>o             uuu==24==<=  ",
"                                  p@@@                     ,iii:*:ii4>            >d2&&2uu==&X= ",
"                                                          Oiuuii4uiii4            1,  =uuu<u2@@ ",
"                                                          4udauiiiiii4&               4s<O,2<1= ",
"                                                         oidaauiuuii41=               1   du1s- ",
"                                                         O3sds44i4441,&                  1, 1@  ",
"                                                         1,4uui111,,=&&                         ",
"                                                         u2,,,,==&@@@XX                         ",
"                                                         5<&@X@@XXXXXXX                         ",
"                                                        -+@XXXXXXXXXXX-5                        ",
"                                                       -5-++XXXXXXXXX+@XX                       ",
"                                                       +@;@++XXXXXXXX++=1                       ",
"                                                       22-;X++XXXXXX+++&<                       ",
"                                                      OppX+++++XXXX+++X&=&                      ",
"                                                      <i*XXX++++++++++X@=<                      ",
"                                                     @d4>OXXX++++++++++X=1                      ",
"                                                     us,O+XX++++++++++XX,u&                     ",
"                                                    -<<,XXX+++++++++ ++XX1O                     ",
"                                                   @@XX&X++++  +++    +XXX                      ",
"                                                   ;@&XXXXXX          >&X&                      ",
"                                                   s5-,XX++           ,&X                       ",
"                                                  1du=@X++            >@&                       ",
"                                                  1i&@X++             >+                        ",
"                                                  O2XX+X             >&                         ",
"                                                   ;X++              o,u,                       ",
"                                                   O&X                &uuu                      ",
"                                                   O,&X                O1i4=                    ",
"                                                    =,X                  u,4                    ",
"                                                    &u&                                         ",
"                                                     &=                                         ",
"                                                     &3=                                        ",
"                                                     *44                                        ",
"                                                     1i4>                                       ",
"                                                    iiiiO                                       ",
"                                                  ,444i4                                        ",
"                                               141,uuu22                                        ",
"                                             ,<u2s4uuuu<                                        ",
"                                             uuud==ddu                                          ",
"                                               dd=adp;                                          ",
"                                               5O pO                                            ",
"                                                                                                "
};
