/* XPM */
static char *_4057_ea87adf73901ae9fbbf0d0b5b1c226584244e2aaf90a19f25d79ceafebef51a9[] = {
/* columns rows colors chars-per-pixel */
"96 95 64 1 ",
"  c #FFFFFF",
". c #13131F",
"X c #381919",
"o c #2E291C",
"O c #3A3319",
"+ c #27272F",
"@ c #3E322C",
"# c #2B2B33",
"$ c #32323A",
"% c #33333B",
"& c #410E15",
"* c #4D1E18",
"= c #60070B",
"- c #750204",
"; c #7F0000",
": c #4A3515",
"> c #453C15",
", c #573D12",
"< c #5A2D24",
"1 c #673B30",
"2 c #5D4E0E",
"3 c #514512",
"4 c #64450E",
"5 c #714C0B",
"6 c #68570B",
"7 c #7D5407",
"8 c #746107",
"9 c #7F6A04",
"0 c #7E4A3C",
"q c #3B3B42",
"w c #007F7F",
"e c #454148",
"r c #4C4C51",
"t c #4F4F5B",
"y c #5E5E61",
"u c #5F5F6B",
"i c #686063",
"p c #746A6D",
"a c #6F6F7B",
"s c gray44",
"d c #976300",
"f c #8B7300",
"g c #9C6854",
"h c #8B7F7F",
"j c #B1840D",
"k c #C4910A",
"l c #7F7F8B",
"z c black",
"x c black",
"c c black",
"v c black",
"b c black",
"n c black",
"m c black",
"M c black",
"N c black",
"B c black",
"V c black",
"C c black",
"Z c black",
"A c black",
"S c black",
"D c black",
"F c black",
/* pixels */
"                                                                                                ",
"                                                                                                ",
"                                                                                                ",
"                                                                                                ",
"                                                                                                ",
"                                                                                                ",
"                                                                                                ",
"                                                                                                ",
"                                                                                                ",
"                                                                                                ",
"                                                                                                ",
"                                                                                                ",
"                                                                                                ",
"                                                                                                ",
"                                                                                                ",
"                                                                                                ",
"                                                                                                ",
"                                                                                                ",
"                                                                                                ",
"                                                                                                ",
"                                                                                                ",
"                                                                                                ",
"                                                                                                ",
"                                                                                                ",
"   <&                                                                                           ",
"    1*                                                                                          ",
"    X*<                                                                                         ",
"     X*0                                                                                        ",
"      XX0<                                                                                      ",
"       *X01X                                                                                    ",
"        **1gX                                                                                   ",
"  r     XXX<11                                                                                  ",
" qh      *XX*11lh+                                                                              ",
" qhi      **XXXelh+                                                                             ",
" qlh#      XXXXXhsh+                                                                            ",
" qhhhr      XXXqrrsh+                                 do                                        ",
" qhhhhh     $qqqrrrsh+                                4fo       8                               ",
" qhhhhhs+   hhrqrryysh+                               X3d&     kkj          4d                  ",
"  hhhhhhhhhhhhyrrrryshh+                               439O   kkkdff      4j3o                  ",
"  ylhhhhhshirrsyreyyysph+                              3Od6gg9jkdff997747dj33                   ",
"   hhhhhhhhhirrsyrrrrrsrh+                              3&65gd9jjd977d76ddO*6                   ",
"   hhrhhhhhshsyrsyrreqrqrr                             O2&:71*gd96777<:d7X&*4O                  ",
"   qlrrhhhhssssyyyyrreqqq1                             8>3&4<$$,75&$XXdX&&&:,9o                 ",
"    hhryhhssssssyyiyreqqX10                           4d4OO<.pw&7d&tw.,:&&*::63                 ",
"    yhrryhssssshsyriye@*X*11                          kd4X&<...0kh4...,&&X:::,6                 ",
"    qlhrrssssssyhsyri1*XX**00                         kd8XX:d15dkd5:,4,,X:94,,,O                ",
"     hhhrrssssssyhsyy <*X*<<gX                        ,d4XX:dd*,gd::44:::&7f6,::                ",
"     qhlsrrsssshiyhsr  XXX*<1g<                        44*X:6d5,**,,,,:3O  7f64:X               ",
"      yllsrrsssshryhq    XXX*<1                        4,*X-<5,<<--,,::Xo   7f0,*o              ",
"       ylhsrisssshryq     *XX*<g                       ,,*X:1,------70:O     ,91,4o             ",
"        ylhsrisssssrq      X<XX10                      ::XX,1XhhXh1h-**o      ,71,9             ",
"         yhlsrisyssyi       *XX*11                    XXXXX,*1h1XXXX0-X         74,6            ",
"          ylhsriiussi+       *X*<<gX                 ,d:XXXXdhXhXXhXh*O          644:           ",
"           yllhrsssssh        *X*<10    9           ,dd:XX  ,500-=0;XOo          96*,O          ",
"            yhsqhsssssy        X*<<<0   kd,        7dd<XX   o7<111*XOO           974,*O         ",
"             yy$hssssssa        X*<<10& *44       dkd1XX    966>OO:OO>           496,XO         ",
"              $ phhsssssa# $yl   **<X<1& ,:X     5d7:XX    4fff2>26664            6644,         ",
"                 qhhlsysshhlh     **XX*gXX*O    :7,XXX    Ofddff9ffff9             444,         ",
"                    qhhhhhhq       XXX1kj:XXX  67:XX&     9dkhdffffff9:            444:         ",
"                                    XXdk41*XX:96:XX      ofkhhdfddff96,            5,,*         ",
"                                    X7dd**0*X:,:X&       O8jkj99f99964:            91*X         ",
"                                    X07,<dhkXXXX*        649ddf66644,::            41*X         ",
"                                     X*,ddk71XXX         d54444,,:***XX            :0*X         ",
"                                      :<ddd5<kXX         05:*X**XXXXXXX            :1*:         ",
"                                       Xfd7kk11XX       <&XXXXXXXXXXXX<0           :6::         ",
"                                        *,fdj*<0X      11<&&XXXXXXXXX&*X           :5,X         ",
"                                         :773dk7<      **1X&&XXXXXXXX&&0g          :5*&         ",
"                                          X:dddX1X     dd**&&&XXXXXX&&X>d          :5*X         ",
"                                           X:,:X*1X    d8>&&&&&XXXX&&&X39j         71,X         ",
"                                            ::<*X<<X  4d4>&&&&&&&&&&XXXO>f         75,O         ",
"                                              &1***1< ,7:X&X&&&&&&&&&X:34fd        d4*X         ",
"                                               &1<X<1X,::XX&&&&&&&&&X&,44ff       ,1:*X         ",
"                                                &1**X:,XXX&&& &&&&&&&X:,46fd      dd4*:         ",
"                                                 &1<X7f3XX&&   &&&   XX*,,6fd     fj9:X         ",
"                                                  &1*4d,XX&            &*,,8j   *:6f4,X         ",
"                                                   &*5XXXX&             &X*,j 64::*:::X         ",
"                                                     XXXXX               &X<>46:::,::X          ",
"                                                     XXXX&                X, 4:::5694XX         ",
"                                                      :XX&               &*5  ,:5d6,:::*        ",
"                                                       :XX               X,4   d7644d7,X*       ",
"                                                        X&              &:6        dddX**       ",
"                                                        O&X             &,5        95,,7,       ",
"                                                        6:*X            O4:                     ",
"                                                      :9jdo             48:                     ",
"                                                     ddd7X             39f6                     ",
"                                                   jd9dO               Offf9                    ",
"                                                     ,                  7f9963                  ",
"                                                                        77d9d496X               ",
"                                                                        5ddd9ddd54@             ",
"                                                                         *dkd:ddddO             ",
"                                                                          1kkXjk&O              ",
"                                                                            h  0                ",
"                                                                                                ",
"                                                                                                ",
"                                                                                                "
};
