/* XPM */
static char *_3987_63e076290d256758ad4324cf3139541dd0cfd25970aa8c9604abfd55099bc406[] = {
/* columns rows colors chars-per-pixel */
"96 95 64 1 ",
"  c #FFFFFF",
". c #0F0F1B",
"X c #13131F",
"o c #381919",
"O c #2E291C",
"+ c #3A3319",
"@ c #1B1B27",
"# c #27272F",
"$ c #3E322C",
"% c #32323A",
"& c #410E15",
"* c #4B0C12",
"= c #4D1E18",
"- c #60070B",
"; c #750204",
": c #7F0000",
"> c #4A3515",
", c #453C15",
"< c #573D12",
"1 c #5A2D24",
"2 c #673B30",
"3 c #5D4E0E",
"4 c #514512",
"5 c #64450E",
"6 c #714C0B",
"7 c #68570B",
"8 c #7D5407",
"9 c #746107",
"0 c #7F6A04",
"q c #7E4A3C",
"w c #3B3B42",
"e c #3F3F4B",
"r c #0C4B51",
"t c #076063",
"y c #007F7F",
"u c #454148",
"i c #4C4C51",
"p c #514B51",
"a c #5E5E61",
"s c #5F5F6B",
"d c #686063",
"f c #746A6D",
"g c #6F6F7B",
"h c gray44",
"j c #976300",
"k c #8B7300",
"l c #9C6854",
"z c #8B7F7F",
"x c #B1840D",
"c c #C4910A",
"v c #7F7F8B",
"b c black",
"n c black",
"m c black",
"M c black",
"N c black",
"B c black",
"V c black",
"C c black",
"Z c black",
"A c black",
"S c black",
"D c black",
"F c black",
/* pixels */
"                                                                                                ",
"                                                                                                ",
"                                                                                                ",
"                                                                                                ",
"                                                                                                ",
"                                                                                                ",
"                                                                                                ",
"                                                                                                ",
"                                                                                                ",
"                                                                                                ",
"                                                                                                ",
"                                                                                                ",
"                                                                                                ",
"                                                                                                ",
"                                                                                                ",
"                                                                                                ",
"                                                                                                ",
"                                                                                                ",
"                                                                                                ",
"                                                                                                ",
"                                                                                                ",
"                                                                                                ",
"                                                                                                ",
"                                                                                                ",
"   1&                                                                                           ",
"   X2=                                                                                          ",
"    o12                                                                                         ",
"     ooq&                                                                                       ",
"      o=2=                                                                                      ",
"       =oq2o                                                                                    ",
"       &o=2lo                                                                                   ",
"  v     o=o2lq                                                                                  ",
" wv      1oo=2lzz%                                                                              ",
" wzz      1ooo=1zz#                                                                             ",
" wzvp     .ooooopvz#                                                                            ",
" wzzze      ooooishz#                                                                           ",
" wzzzvz     %$$wuwifz#                                          7ccc+   cc                      ",
" wzzzzzz#   zfiwuaiihz#                                 77777+++jcx7&58c6o7                     ",
"  zzzzzzvvzzzzhiwiaahhz#                                xx777+5ccxx075c=7>74                    ",
"  avzzzzzhzzgghaiwiaizhz#                              4+xj774xjxxkk05>=<&>44                   ",
"   zgzzzzzzzdiihaiiiiihazw                              4&xqqjjxxjj25722>75=7                   ",
"   zvazzzzzhzhiihaiiuuiiiz                             95&&8qlxxx8xjj2p16>&=5+                  ",
"   wzgizzzzfhhhaihaiiuwiwi                             95+&&>8jxxoXXXj4XX==><0O                 ",
"    zviazfhzhhhhaadaiiwww2l                           5j5+&&&&0kx9Xtyr7Xy==>>74                 ",
"    aviiafhhhhhzhaidaiu$==1l                          cj5o+&&&5005XX$<jXXo>><<7                 ",
"    wzziiahhhhhdzhaidp1o===q2                         cj9oo9545>>66>>>8zc>05<<<+                ",
"     zzziihahhhhazhaiu1=o==1l1                        <j5ooj55;<58kkk4>qxx8k7<>>                ",
"     wzzhiidahhzdazhaw =oo=12lq                       o55=o>j54<2q8jjjo>5  8k75>o               ",
"      azzhiaaahhzaazf    oo==2q                       +5<=o;&855:::::::=<   8kq<=O              ",
"       avzhiahhhhziaz     o===2q                       <<=o>2j77:::1z1lzz1   <02<5O             ",
"        azhhidhhhhhih      ===o2q                      >>oo<2oj07::*z&&zl     <82<0             ",
"         azzhidhhhhai@      ==o=22                     oooo<=++2796:l11&        85<7            ",
"          avzhidhahhaw       =oo12lo                  8>ooo >+++o5,ozzlzzq       855>           ",
"           avzhiazahhh#       =o==1lo   0            8j<oo& ,++++-<>&-:::        07=<+          ",
"            azzawvhhhhh        oo112q   cc6         0x6=o&  454+++=o,&&&         085<=+         ",
"             afihhhhhhhs        o=112q& 5j5+      <jx8=oo   0754,4<<+,           507<o+         ",
"              iwzvhhhhhhh    i   o=2=2qo 5<>     <jx6=oo   5kkk3,3kk09            7755<         ",
"                 zvzhhahhshgvz    ==oo=qoo>>    >881oo#   +kjjkk0jkkk0             555<o        ",
"                   wvzfhzfffv      ooo=1z>==o  486=ooo    0jczjkkkkkk0>            555>o        ",
"                                    o==cc2ooo=797>o=     Okczzjkjjkk07<            6<<=         ",
"                                    o15jk=q=oo75>oo      +9xcx00k00075>            02=o         ",
"                                     18j<==l<o==o=       750jjk77755<>>            52=o         ",
"                                     =6=<jcc1ooo&        j85555<<>===oo            >q=o         ",
"                                     =o>6jxj122o&       &q6>=o==ooooooo            >2=>         ",
"                                      oo5jjjzcqo=      21&ooooooooooooo            >7>>         ",
"                                      >=>58jcj11>     o221&&ooooooooo&o            >6<o         ",
"                                       >>o6j8>kc1     &==2o&&oooooooo&&j1          >6=&         ",
"                                        ooo8<jc521    &l8o=&&&oooooo&&,9j          >6=o         ",
"                                          =o18jooqo   +j9o&&&&&oooo&&&,5jo         82<o         ",
"                                           =o<1=o=1o  jk,+&&&&&&&&&&o&o+o>o        86<+         ",
"                                            o+&2o=121>k9,o&&&&&&&&&&&&&o+0j        j5=o         ",
"                                               &2===1504+oo&&&&&&&&&&&&oo7j>      <2>=o         ",
"                                                &2==16k<&o&&&&&&&&&& &&oo&O&     +j8<o>         ",
"                                                 &2==o<>oo&&   &&&     oo&o&     0k05=o<        ",
"                                                  &2=<>oo&o            >=&o     <kk05<o>        ",
"                                                   &21<o&&            75=o      kxkk0<o>        ",
"                                                   k5==&&             7>o      <xkjkk<o>        ",
"                                                   01o&o              7=&      kx0k005<o+       ",
"                                                   +1&&               >&      5ck1jk07<><o      ",
"                                                    5o               +o<+    2xxq20718><=o      ",
"                                                    6>o               5xj+5  jj5+j0<26<67<      ",
"                                                    o5=                5jjk0O55>1c7<x057k<      ",
"                                                     j>&                 5x8x5> <j7&j8>765      ",
"                                                     ><&                  +&O+& 95> x7o&j7      ",
"                                                     >9<                       +5>  45o 05>     ",
"                                                     >09+                      ++&  75&  57>    ",
"                                                    ojkk>                           k5+  475    ",
"                                                   +k0k0                            49O   O     ",
"                                                >400007j                                        ",
"                                               <j78kjjj6                                        ",
"                                             q7jjj08xj6                                         ",
"                                              x<cjoccj                                          ",
"                                                c>oc2                                           ",
"                                                   $                                            ",
"                                                                                                "
};
