/* XPM */
static char *_8081_6e2e88492d71862864d549d3fa1b6fcdb8cf9dc53a24c6356639c9bff7cc58e8[] = {
/* columns rows colors chars-per-pixel */
"96 95 64 1 ",
"  c #FFFFFF",
". c #13131F",
"X c #381919",
"o c #2E291C",
"O c #3A3319",
"+ c #171723",
"@ c #1B1B27",
"# c #27272F",
"$ c #3E322C",
"% c #2B2B33",
"& c #32323A",
"* c #33333B",
"= c #410E15",
"- c #4D1E18",
"; c #60070B",
": c #750204",
"> c #7F0000",
", c #4A3515",
"< c #453C15",
"1 c #573D12",
"2 c #5A2D24",
"3 c #673B30",
"4 c #514512",
"5 c #64450E",
"6 c #714C0B",
"7 c #68570B",
"8 c #7D5407",
"9 c #746107",
"0 c #7F6A04",
"q c #7E4A3C",
"w c #3B3B42",
"e c #007F7F",
"r c #454148",
"t c #4C4C51",
"y c #4F4F5B",
"u c #5E5E61",
"i c #5F5F6B",
"p c #686063",
"a c #746A6D",
"s c #6F6F7B",
"d c gray44",
"f c #976300",
"g c #8B7300",
"h c #9C6854",
"j c #8B7F7F",
"k c #B1840D",
"l c #C4910A",
"z c #7F7F8B",
"x c black",
"c c black",
"v c black",
"b c black",
"n c black",
"m c black",
"M c black",
"N c black",
"B c black",
"V c black",
"C c black",
"Z c black",
"A c black",
"S c black",
"D c black",
"F c black",
/* pixels */
"                                                                                                ",
"                                                                                                ",
"                                                                                                ",
"                                                                                                ",
"                                                                                                ",
"                                                                                                ",
"                                                                                                ",
"                                                                                                ",
"                                                                                                ",
"                                                                                                ",
"                                                                                                ",
"                                                                                                ",
"                                                                                                ",
"                                                                                                ",
"                                                                                                ",
"                                                                                                ",
"                                                                                                ",
"                                                                                                ",
"                                                                                                ",
"                                                                                                ",
"                                                                                                ",
"                                                                                                ",
" X                                                                                              ",
" +2                                                                                             ",
"   2=                                                                                           ",
"    3-                                                                                          ",
"    X-2                                                                                         ",
"     X-q                                                                                        ",
"      XXq2                                                                                      ",
"       -Xq3X                                                                                    ",
"        --3hX                                                                                   ",
" @t     XXX233                                                                                  ",
" wj      -XX-33zj#                                                                              ",
" wjp      --XXXrzj#                                                                             ",
" wzj%      XXXXXjdj#                                                                            ",
" wjjjt      XXXwttdj#                                                                           ",
" wjjjjj+    *wwwtttdj#                                                                          ",
" wjjjjjd#   jjtwttuudj#                               fo                                        ",
"  jjjjjjjjjjjjuttttudjj#                              5g<      O51O                             ",
"  uzjjjjjdjpttdutruuudaj#                             X4fO7777fllkf88f55554 7f                  ",
"   jjjjjjjjjpttdutttttdtj#                             5407667lllfgg8ffkkf0k4o                  ",
"   jjtjjjjjdjdutduttrwtwtt                             4Of7hh0klfgg008858fk4,                   ",
"   wzttjjjjdddduuuuttrwww3+                            94=76hf0kkf088f87ffO-10                  ",
"    jjtujjdddddduuputrwwX3q+                          5f5=,83-hf078882,f8X=-174                 ",
"    ujttujdddddjdutpur$-X-33                          lf5X=52**186=*XXfX===,,17                 ",
"    wzjttddddddujdutp3-----qq                         lf9XO2.ae=8f=ye.1,==-5111o                ",
"     jjjttddddddujduu 2-X-22hX                        1f5XX2...qlj5...1==X1771,X                ",
"     wjzdttddddjpujdt  XXX-23h2                       X55-X,f36flf6,1511X,f5075X                ",
"      uzzdttddddjtujw    XXX-23                       O51-X,ff-1hf,,55,,,5X,5gq1                ",
"       uzjdtpddddjtuw     -XX-2h                       11-X,7f61--1111,4O  X0511X               ",
"        uzjdtpdddddtw      X2XX3q                      ,,XX:26122::11,,Xo   X05-1               ",
"         ujzdtpduddup       -XX-33                    XXXXXX31::::::8q,O     5f1-5              ",
"          uzjdtppiddp#       -X-22hX                 1f,XXX13XjjXj3j:--o      X05,,             ",
"           uzzjtdddddj        -X-23q    0           1f8,XX=X-3j....Xq:X         515             ",
"            ujdwjdddddu        X-222q   lf1        8ff1XX  =fjXjXXjXj-          711             ",
"             uu*jdddddds        X-223q= -55       flf6XX    86qq:;q>XO          O1-             ",
"              * ajjddddds% *uz   --2X23= 1,X     6f8,XX    5gf3333-X55          ,6-X            ",
"                 wjjzduddjjzj     --XX-hXX-X    ,81-XX    Ogffgg0fggg0           8-X            ",
"                    wjjjjjjw       XXX3lk,XXX  78,XX      0fljfgggggg0,          8--            ",
"                                    XXfl53-XX,07,XX      ogljjfgffgg071          0,,            ",
"                                    X8ff--q-X,1,X=       O9klk00g00075,          81X            ",
"                                    Xq812fjlXXXX-        750ffg777551,,          8-=            ",
"                                     X-1ffl83XXX         f6555511,---XX          8,X            ",
"                                      ,2fff62lXX        =q6,-X--XXXXXXX         ,31O            ",
"                                       Xgf8ll33XX      32=XXXXXXXXXXXX2q        ,3,X            ",
"                                        -1gfk-2qX      332==XXXXXXXXX=-X-       53XX            ",
"                                          884fl82     =--3X==XXXXXXXX==6h6  11,,08,O            ",
"                                           ,fffX3X    =f8X-===XXXXXX==X7ff8Of715g05X=           ",
"                                           X,1,X-3X   Xk7X=====XXXX===O4gfff1O,g005-X           ",
"                                            ,,2-X22X  Of,O============XO,788X 0fkk7-,           ",
"                                              =3---32 86=XX==========XXXXX-6X fk0g71X           ",
"                                               =32X231,XXXX=========X=XXX=X2OOl05g751X          ",
"                                                =3---1,XXX=== ======   XX,X2=ffX,051,X          ",
"                                                 =32X70OXX==   ===     XXX-6=f5 f,8575          ",
"                                                  =3-57XX=              XX18XkXf0Xf784          ",
"                                                   =36=XX=              X=12olXO0Xf51-          ",
"                                                    =X=XX               X ,XoO 45 f7 7          ",
"                                                     XXXX               X1gX   7k kX            ",
"                                                     -XX=               ,kkk5  O, f             ",
"                                                     XXX=                7kkff,                 ",
"                                                      -X=                  ff0fg=               ",
"                                                      X==                   7ff75f=             ",
"                                                       =XX                   ff70X              ",
"                                                      oX X=                                     ",
"                                                      kf5Oo                                     ",
"                                                     fkk0                                       ",
"                                                   ffkf7                                        ",
"                                                 580f7                                          ",
"                                                h8lff                                           ",
"                                                  =0                                            ",
"                                                                                                ",
"                                                                                                ",
"                                                                                                ",
"                                                                                                ",
"                                                                                                "
};
