/* XPM */
static char *_1829_9ba3d1c6275f705aa83a586738053fa4a1f1ec478ad50d902b2ea9e5f17744fb[] = {
/* columns rows colors chars-per-pixel */
"115 68 64 1 ",
"  c #FFFFFF",
". c #13131F",
"X c #381919",
"o c #2E291C",
"O c #3A3319",
"+ c #27272F",
"@ c #3E322C",
"# c #2B2B33",
"$ c #32323A",
"% c #410E15",
"& c #4B0C12",
"* c #4D1E18",
"= c #60070B",
"- c #750204",
"; c #7F0000",
": c #4A3515",
"> c #453C15",
", c #573D12",
"< c #5A2D24",
"1 c #673B30",
"2 c #514512",
"3 c #64450E",
"4 c #714C0B",
"5 c #68570B",
"6 c #7D5407",
"7 c #746107",
"8 c #7F6A04",
"9 c #7E4A3C",
"0 c #076063",
"q c #007F7F",
"w c #4C4C51",
"e c #514B51",
"r c #976300",
"t c #8B7300",
"y c #9C6854",
"u c #8B7F7F",
"i c #B1840D",
"p c #C4910A",
"a c #7F7F8B",
"s c black",
"d c black",
"f c black",
"g c black",
"h c black",
"j c black",
"k c black",
"l c black",
"z c black",
"x c black",
"c c black",
"v c black",
"b c black",
"n c black",
"m c black",
"M c black",
"N c black",
"B c black",
"V c black",
"C c black",
"Z c black",
"A c black",
"S c black",
"D c black",
"F c black",
/* pixels */
"                                                                                                                   ",
"                                                                                                                   ",
"                                                                                                                   ",
"                                                                                                                   ",
"                                                                                                                   ",
"                                                                                                                   ",
"                                                                                                                   ",
"                                                                                                                   ",
"                                                                                                                   ",
"                                                                                                                   ",
"                                                                                                                   ",
"                                                                                                                   ",
"                                                                                                                   ",
"                                                                                                                   ",
"                                                                                                                   ",
"                                                                                                                   ",
"                                                                                                                   ",
"                                                                                                                   ",
"                                                                                                                   ",
"                                                                                                                   ",
"                                                                                                                   ",
"                                                                                                                   ",
"                                                                                                                   ",
"                                                                                                                   ",
"                                                                                                                   ",
"                                                                                                                   ",
"                                                                                                                   ",
"                                                                                                                   ",
"                                                                                                                   ",
"                                                                                                                   ",
"                                                                                                                   ",
"                                                                                                                   ",
"                                                                                                                   ",
"                                                                                                                   ",
"                                                                                                                   ",
"                                                                                                                   ",
"                                                                                             o                     ",
"                                                                                            3o                     ",
"                                                                        ---                 33                     ",
"                                                                    --pX--------            52                     ",
"                                                                   r-X-XX--------        699232                    ",
"                                                                  XX<X-XXXX--------o     9yr888                    ",
"                                                                 >>X**X--;XX-------XXu   :ttrii                    ",
"                                                  >--            >>>O$XX-----XX----XXX%  6ipiiiipr                 ",
"                                                 -----           7>XOO*55--------:2XX*:45t-----irr                 ",
"                                                 -- 4>u         4r4:OO:,45-----XXXXXX>o35iii6r-tt5                 ",
"                                                  - >>          pr4,:,,566--->>XXXX2:2-:tttXii--83                 ",
"                                                  -   4+        pr74rX,566r--7>4>XXX22,3577.irr333r  :             ",
"                                                 ----X>4         r44,4,4r4r-rr774XXX5;464.0..r15::*rrX             ",
"                                                 ---->X44         4,,,:,>7------X>45;;;6t4.q.r1e1**546             ",
"                                                   --4444        XXXX:OO7--------45;;;;46:.,.2e<1:,:X              ",
"                                                   - >77447     XXXXXOO>rpu-------4;;;;;r4::r5...45%5:             ",
"                                                       7447     XXXXXXO>7ipi------74&<uu;r:pp.q..34                ",
"                                                       74X47   XXXXXXXX747rr-----44;uu<<;X9pp.X:.ir                ",
"                                                       >>4477  XXXXXXXXXXX4444---XXuy%%yy*:iio>*r4p4               ",
"                                                        >>X444 XXXXXXXXXXXXXXXX---XXu<%yuu,X3X-747pp@              ",
"                                                         >X44447XXXXXXXXXXXXXXXX--X=y<uuuu%XrX->7rXXp@             ",
"                                                     ----->444444#44wuXXXXXXXXXX--*;;u:r<rXXXr->rrr>X              ",
"                                            uuu--X <%----- XX44XXyauuu>XXXXXXX----XX;u::44XOX---4rpp>              ",
"                                ---     uuuuu--------------->XXXXX>444wXXXXXX----XXXXX:2rr4XO----74pp              ",
"                                   -----------       uuuX*--Xuu9X>>4XX4XXXXXX----XXXX--:2rr-----yi74-              ",
"                                                     ---uuuuuuuuuuuXXX444>47XX---XXXX------------yi -              ",
"                                                      ------uuuuuuuu>44XX4447rXXXXXX47>>-------------              ",
"                                                        -----uuuuuuu7X>XXXX447r7r77pr44>---------uuuuu             ",
"                                                              ----uuu74>uuXXXX4477447>-X--uuuuuuuu-----uuu--       ",
"                                                               --------      X4444iX--------------------------     ",
"                                                                --------      X>447ri>----                         ",
"                                                                                444>X444>                          "
};
