/* XPM */
static char *result[] = {
/* columns rows colors chars-per-pixel */
"32 40 23 1 ",
"  c black",
". c #2D2628",
"X c #282227",
"o c #382E2B",
"O c #332A2A",
"+ c #43352D",
"@ c #221F26",
"# c #2B2B33",
"$ c #3E322C",
"% c #4E3D30",
"& c #49392F",
"* c #1D1B24",
"= c #55090E",
"- c #7F0000",
"; c #171723",
": c #81818D",
"> c #505663",
", c #60070B",
"< c #555561",
"1 c #5A2D24",
"2 c #4B4B57",
"3 c #4D1E18",
"4 c white",
/* pixels */
"              .X                ",
"           .XXoXXX              ",
"          ..Oo+..XXo            ",
"       @@@#o$%+..XXX@@          ",
"      @@..+&&+&.+++X@@@         ",
"     @@..+$$%+...o++X@@         ",
"     @..oo+$&.+++.o++X@@        ",
"    @%%%%%X+*+++++*O%%%%%       ",
"    %o@@@$%$$$+$+$$%o@@@o%      ",
"    %o@@@@.$%%$$%%@.@@@@o%      ",
"    o%@@@o.@=%$$%=@.@@@@%X      ",
"    @@%oo%.@-%$$%-@.%oo%XX      ",
"    @+@%%@..@$..$@@.@%%X@X      ",
"   X+oXXo@.%%$@@$%%.@o@.@X      ",
"   XooXX+@.+%.;;.%+.@o+.@XX     ",
"   X+%@X+@@@o@.o@o*@@@+.@XX     ",
"   XooXX+%@.@@***@.@@*+.@XX     ",
"   Xo+X%+oo.%+::>%.oo%+XXX@     ",
"   XXoXo+oo.%%,,%%o.oo@XXX@     ",
"    XXoo+oo.@%,,%<.Xoo@@XX      ",
"    X@oo&o...%::%<@X@@@XXX      ",
"     Xoo111.2*%%**@@@33XX       ",
"      3X1111@@***.12333X        ",
"      333 12 33111 333          ",
"       332 2 333  333           ",
"        333  33 3333            ",
"        3332333 3333            ",
"          323333333             ",
"             33                 ",
"             333                ",
"              3333              ",
"                333             ",
"                 33             ",
"                 3              ",
"                                ",
"                                ",
"                                ",
"                                ",
"                                ",
"                                "
};
