/* XPM */
static char *result[] = {
/* columns rows colors chars-per-pixel */
"32 40 20 1 ",
"  c black",
". c #55090E",
"X c #64450E",
"o c #5A2D24",
"O c #4D1E18",
"+ c #2D2628",
"@ c #282227",
"# c #382E2B",
"$ c #332A2A",
"% c #43352D",
"& c #221F26",
"* c #2B2B33",
"= c #3E322C",
"- c #4E3D30",
"; c #49392F",
": c #1D1B24",
"> c #7F0000",
", c #171723",
"< c #505663",
"1 c white",
/* pixels */
"                                ",
"                                ",
"                                ",
"                 .              ",
"                 Xo             ",
"                 OO             ",
"                 Xo             ",
"              +@OOo             ",
"           +@@#@@@o             ",
"          ++$#%++@@#            ",
"       &&&*#=-%++@@@&&          ",
"      &&++%;;%;+%%%@&&&         ",
"     &&++%==-%%+##%%@&&         ",
"     &++##%=;%-++%#%%@&&        ",
"    &&+#;#@%%%%++;$$%%&&&       ",
"    &+%#=@:##%%#+=:@$%++&&      ",
"    &+%@@:+#=%+++#=:@$%+&&      ",
"    &+%@:=+=%+%%%+==:@%+&&      ",
"    &-----@#:%%%%%:=-----@      ",
"    -#&&&=-===%=%==-#&&&#-      ",
"   @-#&&&&+=--==--&+&&&&#-      ",
"   @#-&&&#+&.-==-.&+&&&&-@@     ",
"   @%&-##-+&>-==->&+-##-@@@     ",
"   @##&--&++&=++=&&+&--@&@@     ",
"   @#%@-#&+--=&&=--+&#&@@@&     ",
"   @@#@#%&+%-+,,+-%+&#&@@@&     ",
"   @@@@%%&&&#&+#&#:&&&&&&@      ",
"   @@&&#;#&+&&:::&+&&&&@@@      ",
"   @OOo ;##++%<%<++:&oo@@@      ",
"    Ooo   :::++++:   oo oO      ",
"    Oooo            ooo OO      ",
"   OOooooo          ooooOO      ",
"   OO  oooo        oooo OO      ",
"   OO              oooo OOO     ",
" OOOO                  OOOOO    ",
" OOOOO                OO O      ",
"  OO O                   O      ",
"                                ",
"                                ",
"                                "
};
