/* XPM */
static char *result[] = {
/* columns rows colors chars-per-pixel */
"32 40 21 1 ",
"  c black",
". c #55090E",
"X c #64450E",
"o c #5A2D24",
"O c #4D1E18",
"+ c #2D2628",
"@ c #282227",
"# c #382E2B",
"$ c #332A2A",
"% c #43352D",
"& c #221F26",
"* c #2B2B33",
"= c #3E322C",
"- c #4E3D30",
"; c #49392F",
": c #1D1B24",
"> c #7F0000",
", c #171723",
"< c #505663",
"1 c #673B30",
"2 c white",
/* pixels */
"                                ",
"                   .            ",
"                   Xo           ",
"                   OO           ",
"                   Xo           ",
"                  OOo           ",
"               oOOXO            ",
"              ++oOoo            ",
"           +@@#@@@o             ",
"          ++$#%++@@#            ",
"       &&&*#=-%++@@@&&          ",
"      &&++%;;%;+%%%@&&&         ",
"     &&++%==-%%+##%%@&&         ",
"     &++##%=;%-++%#%%@&&        ",
"    &&+#;#@%%%%++;$$%%&&&       ",
"    &+%#=@:##%%#+=:@$%++&&      ",
"    &+%@@:+#=#%%+#=:@$%+&&      ",
"    &+%@:++=@@++++==:@%+&&      ",
"    &+%@+==@@+%%%++=:@%+&&      ",
"    &-----@::%%%%%:@-----&      ",
"   @-#&&&=-===%=%==-#&&&#-      ",
"   @-#&&&&+=--==--&+&&&&#-@     ",
"   @#-&&&#+&.-==-.&+&&&&-@@     ",
"   @#&-##-+&>-==->&+-##-@@@     ",
"   @##&--&++&=++=&&+&--@@@&     ",
"   @@#@##&+--=&&=--+&#&@@@&     ",
"   @@@@%%#+%-+,,+-%+&#&&&&      ",
"    &&&#;#&&#&+#&#:&&&& &&      ",
"    oOO ;#&+&&:::&+ &&& oO      ",
"    oOO &&& +%<%<++ &&& oOO     ",
"    ooO ooO  ++++   oOO ooO     ",
"    oOO 1oO         ooO  oOO    ",
"  oooO  11o         1OO  ooOOO  ",
" ooOoO1111O        111O   oooOo:",
":oOoO1o1o1O       1o1O1O   :o:: ",
"  : ::o1o1        1o1Oo1        ",
"       : :        : : ::        ",
"                                ",
"                                ",
"                                "
};
