/* XPM */
static char *result[] = {
/* columns rows colors chars-per-pixel */
"32 40 21 1 ",
"  c black",
". c #64450E",
"X c #4D1E18",
"o c #2D2628",
"O c #5A2D24",
"+ c #282227",
"@ c #382E2B",
"# c #332A2A",
"$ c #43352D",
"% c #221F26",
"& c #2B2B33",
"* c #3E322C",
"= c #4E3D30",
"- c #49392F",
"; c #1D1B24",
": c #55090E",
"> c #7F0000",
", c #171723",
"< c #505663",
"1 c #673B30",
"2 c white",
/* pixels */
"                                ",
"                                ",
"                                ",
"                                ",
"                                ",
"                                ",
"                 .X             ",
"                .XX             ",
"                ..X             ",
"               .XXX             ",
"              ooOX              ",
"           o++@++X              ",
"          oo#@$oo#+@ %%%        ",
"    %%%##%&@*=$o####%%%%%       ",
"   %%@o%oo$--$-o$$####%#%%      ",
"   %@#%oo$**=$$o@@$$$#$##%      ",
"  %o#%oo@@$*-$=oo$@$$+$##%      ",
"  %@$$o@-@+$$$$oo-##$$%$$%%     ",
" %@%$o$+o**++o$$$oo*;+$o%@@%    ",
" %@$%=====+;;$$$$$;+=====@@%%   ",
" @$$=@%%%*=***$*$**=@%%%@=$$%   ",
"@$$$=@%%%%o*==**==%o%%%%@=+$%%  ",
"@%$+@=%%%@o%:=**=:%o%%%%=++$%%  ",
"%@$$@%=@@=o%>=**=>%o=@@=+++%%%  ",
"%%@$$@%==%oo%*oo*%%o%==++%%%%   ",
" %%%+@+@@%o==*%%*==o%@%++$%%    ",
"   ++++$$@o$=o,,o=$o%@%%%%      ",
"    %%%@-@%%@%o@%@;%%%%%%%      ",
"    OX%%-@%o%%;;;%%%%%%%%X      ",
"    OXX %%%%o$<$<oo%%%% OXX     ",
"    OOX OOX %oooo%% OXX OOX     ",
"    OXX 1OX  %%%%%  OOX  OXX    ",
"  OOOX  11O         1XX  OOXXX  ",
" OOXOX1111X        111X   OOOXO;",
";OXOX1O1O1X       1O1X1X   ;O;; ",
"  ; ;;O1O1        1O1XO1        ",
"       ; ;        ; ; ;;        ",
"                                ",
"                                ",
"                                "
};
