/* XPM */
static char *result[] = {
/* columns rows colors chars-per-pixel */
"32 40 21 1 ",
"  c #FFFFFF",
". c #673B30",
"X c #4D1E18",
"o c #7E4A3C",
"O c #282227",
"+ c #2D2628",
"@ c #382E2B",
"# c #332A2A",
"$ c #43352D",
"% c #221F26",
"& c #2B2B33",
"* c #3E322C",
"= c #4E3D30",
"- c #49392F",
"; c #1D1B24",
": c #55090E",
"> c #7F0000",
", c #5A2D24",
"< c #171723",
"1 c #505663",
"2 c white",
/* pixels */
"                                ",
"                                ",
"              .XX               ",
"              oXX               ",
"              o.X               ",
"              XOX               ",
"           +OO@OOO              ",
"          ++#@$++OO@            ",
"       %%%&@*=$++OOO%%          ",
"      %%++$--$-+$$$O%%%         ",
"     %%++$**=$$+@@$$O%%         ",
"     %++@@$*-$=++$@$$O%%        ",
"    %%+@-@O$$$$++-##$$%%%       ",
"    %@$@*O;@@$$@+*;O#$++%%      ",
"    @@$OO;+@*$$$+@*;O#$@%%      ",
"    @@$O;*+*$$@@++**;O$@%%      ",
"    @@OO+**@$$@@$++*;O$@@O      ",
"    @+OO;*+*$$@@++**;OO@@%      ",
"    @OOO+**@$$@@$++*;OO@@O      ",
"    @O$O*$@$$@$$$+;O;;O+@O      ",
"    @OOO*$@$*+++$@+O@;O+@O      ",
"   @@OOO$$@*+$$$+@@O%;OO@@O     ",
"   @=====O@;$$$$$;$=====@@O     ",
"   =@%%%*=***$*$**=@%%%@=@O     ",
"   =@%%%%+*==**==%+%%%%@=@%     ",
"   @=%%%@+%:=**=:%+%%%%=OO%     ",
"    %=@@=+%>=**=>%+=@@=OX,      ",
"    XX==%++%*++*%%+%==OO,X      ",
"    XX@@%+==*%%*==+%@%@OXX      ",
"   XXX@O%+$=+<<+=$+%@@%OXXX     ",
"  XX X@O%%%@%+@%@;%%%OOOXXXXX   ",
"  X XX@OO%+%%;;;%+% @OO XXX X   ",
"    X OO@  +$1$1++   @, X X     ",
"      .,   +=11=%    @@         ",
"      ,,   +;==;;    ,,         ",
"      ,,     ;;;    ,,,         ",
"      ,,            ,,,         ",
"     ,,,,          ,,,,,        ",
"    ,,,,,,        ,, , ,        ",
"    , ,, ,                      "
};
