/* XPM */
static char *result[] = {
/* columns rows colors chars-per-pixel */
"32 40 24 1 ",
"  c black",
". c #55090E",
"X c #64450E",
"o c #5A2D24",
"O c #4D1E18",
"+ c #2D2628",
"@ c #282227",
"# c #382E2B",
"$ c #332A2A",
"% c #43352D",
"& c #221F26",
"* c #2B2B33",
"= c #3E322C",
"- c #4E3D30",
"; c #49392F",
": c #1D1B24",
"> c #32323A",
", c #7F0000",
"< c #2E2C35",
"1 c #171723",
"2 c #505663",
"3 c #3D414E",
"4 c #673B30",
"5 c white",
/* pixels */
"                                ",
"                   .            ",
"                   Xo           ",
"                   OO           ",
"                   Xo           ",
"                  OOo           ",
"               oOOXO            ",
"              ++oOoo            ",
"           +@@#@@@o             ",
"          ++$#%++@@#            ",
"       &&&*#=-%++@@@&&          ",
"      &&++%;;%;+%%%@&&&         ",
"     &&++%==-%%+##%%@&&         ",
"     &++##%=;%-++%#%%@&&        ",
"    &&+#;#@%%%%++;$$%%&&&       ",
"    &+%#=@:##%%#+=:@$%++&&      ",
"    &+%@@:+#=#%%+#=:@$%+&&      ",
"    &+%@:+::::#+++==:::+&&      ",
"    &+%@+:----::=++::--&&&      ",
"    &+-+:-####-==#+:-::-&&      ",
"   @&+&+:-@:::#-%%%=&::-&&      ",
"   @&&&&:-@::@@&&&$%>&-&#&@     ",
"   @&&&&:-#::@#%&.&$%>&&&&@     ",
"   @#&@##:--#@%%&.,&+=>&&@@     ",
"   @##@%%%:++++%%&&&++=<&@&     ",
"   @@#@%#&+::++##&&%%$$@11&     ",
"   @@@@%%#+%::++&&%---+111      ",
"    &&&#;#&&#::::&%--::::&      ",
"    oOO ;#&+&&:::&&&&#23#O      ",
"    oOO &&&         &23 oOO     ",
"    ooO ooO         oOO ooO     ",
"    oOO 4oO         ooO  oOO    ",
"  oooO  44o         4OO  ooOOO  ",
" ooOoO4444O        444O   oooOo:",
":oOoO4o4o4O       4o4O4O   :o:: ",
"  : ::o4o4        4o4Oo4        ",
"       : :        : : ::        ",
"                                ",
"                                ",
"                                "
};
