/* XPM */
static char *result[] = {
/* columns rows colors chars-per-pixel */
"32 40 23 1 ",
"  c #FFFFFF",
". c #2D2628",
"X c #282227",
"o c #382E2B",
"O c #332A2A",
"+ c #43352D",
"@ c #221F26",
"# c #2B2B33",
"$ c #3E322C",
"% c #4E3D30",
"& c #49392F",
"* c #1D1B24",
"= c #55090E",
"- c #7F0000",
"; c #171723",
": c #505663",
"> c #60070B",
", c #4B4B57",
"< c #4D1E18",
"1 c #673B30",
"2 c #555561",
"3 c #5A2D24",
"4 c white",
/* pixels */
"                                ",
"                                ",
"                                ",
"                                ",
"                                ",
"              .X                ",
"           .XXoXXX              ",
"          ..Oo+..XXo            ",
"       @@@#o$%+..XXX@@          ",
"      @@..+&&+&.+++X@@@         ",
"     @@..+$$%+...o++X@@         ",
"     @..oo+$&.+++.o++X@@        ",
"     %%%%%X+*+++++*O%%%%%       ",
"    %o@@@$%$$$+$+$$%o@@@o%      ",
"    %o@@@@.$%%$$%%@.@@@@o%      ",
"    o%@@@o.@=%$$%=@.@@@@%X      ",
"    @@%oo%.@-%$$%-@.%oo%X@      ",
"    @+@%%@..@$..$@@.@%%X@@      ",
"    @oXXo@.%%$@@$%%.@o@.@X      ",
"    @oXX+@.+%.;;.%+.@oX.@X      ",
"   X+%@X+@@@o@.o@o*@@@X.+X      ",
"   XoXXX+%@.@@***@.@@*X.+XX     ",
"   X+XX%%oo..+:+:..oX*XX+XX     ",
"   XoXX%+oo.@%>>%o*.@*@X+XX     ",
"   ++XX%%oo..%::%**X@*@@++@     ",
"   ++X@@%%..,*%%******@X++X     ",
"   ++X<.@%<@,@******@@@@X+X     ",
"   +XX@@11<@ <<<**   1<@X+X     ",
"   ++X@@111<,<<<<  211<@XXX     ",
"   <<<3@ 11<<<<<< 11<<<@3<X     ",
"    <<<    111 << 1<<< @<<      ",
"     <<         11<<   3<<      ",
"     <<                 <<      ",
"      <<<               <<<     ",
"     <<<<              <<<<<    ",
"    <<<<<             << <      ",
"     <                   <      ",
"                                ",
"                                ",
"                                "
};
