/* XPM */
static char *result[] = {
/* columns rows colors chars-per-pixel */
"32 40 21 1 ",
"  c #FFFFFF",
". c #2D2628",
"X c #282227",
"o c #382E2B",
"O c #332A2A",
"+ c #43352D",
"@ c #221F26",
"# c #2B2B33",
"$ c #3E322C",
"% c #4E3D30",
"& c #49392F",
"* c #1D1B24",
"= c #55090E",
"- c #7F0000",
"; c #171723",
": c #636B78",
"> c #505663",
", c #60070B",
"< c #5A2D24",
"1 c #4D1E18",
"2 c white",
/* pixels */
"              .X                ",
"           .XXoXXX              ",
"          ..Oo+..XXo            ",
"       @@@#o$%+..XXX@@          ",
"      @@..+&&+&.+++X@@@         ",
"     @@..+$$%+...o++X@@         ",
"     @..oo+$&.+++.o++X@@        ",
"    @%%%%%X+*+++++*O%%%%%       ",
"    %o@@@$%$$$+$+$$%o@@@o%      ",
"    %o@@@@.$%%$$%%@.@@@@o%      ",
"    o%@@@o.@=%$$%=@.@@@@%X      ",
"    @@%oo%.@-%$$%-@.%oo%XX      ",
"    @+@%%@..@$..$@@.@%%X@X      ",
"   X+oXXo@.%%$@@$%%.@o@.@X      ",
"   XooXX+@.+%.;;.%+.@o+.@XX     ",
"   X+%@X+@@@o@.o@o*@@@+.@XX     ",
"   XooXX+%@.@@::*@.@@*+.@XX     ",
"   Xo+X%+oo.%:::>%.oo%+XXX@     ",
"   XXoXo+oo.%%::%%o.oo@XXX@     ",
"    XXoo+oo.@%,,%o.Xoo@@XX      ",
"    X@oo&o..@%,,%o@X@@@XXX      ",
"     Xoo<<<..%::%*<<@11XX       ",
"      1X<<<<.*%%**< 111X        ",
"      111 << @***< 111          ",
"       111   111  11            ",
"        111  11 1111            ",
"        1111111 1111            ",
"          111111111             ",
"             11                 ",
"             111                ",
"              1111              ",
"                111             ",
"                 11             ",
"                 1              ",
"                                ",
"                                ",
"                                ",
"                                ",
"                                ",
"                                "
};
