/* XPM */
static char *result[] = {
/* columns rows colors chars-per-pixel */
"77 53 28 1 ",
"  c #FFFFFF",
". c #171723",
"X c #1D1B24",
"o c #505663",
"O c #4E3D30",
"+ c #55090E",
"@ c #2E2C35",
"# c #282227",
"$ c #332A2A",
"% c #43352D",
"& c #221F26",
"* c #3E322C",
"= c #2D2628",
"- c #6A0507",
"; c #32323A",
": c #7F0000",
"> c #750204",
", c #382E2B",
"< c #4B0C12",
"1 c #60070B",
"2 c #49392F",
"3 c #2B2B33",
"4 c #361019",
"5 c #5A2D24",
"6 c #673B30",
"7 c #4D1E18",
"8 c #64450E",
"9 c white",
/* pixels */
"                                             ..Xo   OXX                      ",
"                                             ..Xoo+ooOX                      ",
"                                             @#$%X++o+O                      ",
"                                             &*$%%X+++XX                     ",
"                                              &=%OX-+OXX                     ",
"                                            O &=%O--+OXX                     ",
"                                           OOOO;&---O&XX                     ",
"                                 -        &XXX------%%XXX                    ",
"                  -::>>>>       ->        XOXX-;-&&-&&XXX                    ",
"                ---:>>::>>>     ->>        XX----+&,,&XXX                    ",
"               --::-->>>>>>     -->          -%&&&&%-=XXX                    ",
"              -----      >>>>     >         -XX%&&&%,,=XXX                   ",
"              >            >>>  > > -  #, ,--#*%&&%%==XXXX                   ",
"                             >>   > -%#=#&$-#X**O-,%===XXXX                  ",
"                         ::  >>> #>>*-<<=####*X--,###=XXXXX                  ",
"                 11111: ::::  >#>#->-<,<%$$***XO,X#X,=X$$XX                  ",
"                      11111 :=>>>>-*:<<-<<,*%%-X,XXXXOX$$XX                  ",
"                        ::1111$>>>-::-<-%%%%O-XOO,##,OX%%XX&                 ",
"                           ::111>>><<<<$2&%%*OOXO,,OO===,,&&                 ",
"                       :::&&3*O11144<>=$&&%%*O*=OXOXXX===&X&                 ",
"             >>:::>-------->>>>>11>-*$$.==%%$&**#$$$XXXXXXXX                 ",
"           -:::-----   >>&===%:O41<->$$$$%2$$&$$$$$XXXXXXXXX                 ",
"         --:---        &&&=,2==$<<<>*>$.$22$$&=$$==XXXXXXXXX                 ",
"         ---            &=>::==<1<<44$$&#2**$&===XXXXX XXXXXX                ",
"        --             &>::,*1111<-4<&&&&2**$$&$XXXX    XXXXX                ",
"                       &:=**21&<<1<4<&&&&22*2$$$$XXX     XXXX                ",
"                       >&=**11&<<=4--<&&&&&**2*$$XX      XXXX                ",
"                       5&$11**&<<1<<4&4&&&&&*2***$XX     X67                 ",
"                     77&$$**,>#-<1<<---&&&X&&&22**$X     667                 ",
"                    777&$$*==--#1<<<&-&&&X . &&&22*XX    667                 ",
"                  77776&$$*=--&##&&11&&&$&     &26$$X   667                  ",
"                   787 &$$**-$&&&&&1&&$&&        667   6667                  ",
"                  75    &$*===&1>&&1&&           667  66677                  ",
"                887    &&#===&1&&&11        66 66677  66777                  ",
"                677  &&&**=&&&&&- 1         7666667    7777                  ",
"               557   ***===&&&&             7766667                          ",
"              65   ##&*==-7&&&  -            666767                          ",
"             675 56###&&7777   --             77677                          ",
"             57 56655&   77                    667                           ",
"            65  565    .77   >  1               7                            ",
"             7   65   .77                                                    ",
"            65 .755                                                          ",
"           75 755                                                            ",
"            5 .55                                                            ",
"              5                                                              ",
"                                                                             ",
"                                                                             ",
"                                                                             ",
"                                                                             ",
"                                                                             ",
"                                                                             ",
"                                                                             ",
"                                                                             "
};
