/* XPM */
static char *result[] = {
/* columns rows colors chars-per-pixel */
"77 53 25 1 ",
"  c black",
". c #2D2628",
"X c #282227",
"o c #410E15",
"O c #60070B",
"+ c #221F26",
"@ c #4B0C12",
"# c #382E2B",
"$ c #43352D",
"% c #49392F",
"& c #3E322C",
"* c #361019",
"= c #4E3D30",
"- c #332A2A",
"; c #1D1B24",
": c #750204",
"> c #5A2D24",
", c #4D1E18",
"< c #55090E",
"1 c #32323A",
"2 c #2E2C35",
"3 c #171723",
"4 c #505663",
"5 c #3D414E",
"6 c white",
/* pixels */
"                                                                             ",
"                                                                             ",
"                                                                             ",
"                                                                             ",
"                                                                             ",
"                                                                             ",
"                                                                             ",
"                                                                             ",
"                                                                             ",
"                                                                             ",
"                                                                             ",
"                                                                             ",
"                                                                             ",
"                                                                             ",
"                                                                             ",
"                                                                             ",
"                                                                             ",
"                                                                             ",
"                                                                             ",
"                                                                             ",
"                                                                             ",
"                                                                             ",
"                                                                             ",
"                                                                             ",
"                               .XXXXXX                                       ",
"                              .oooOooXXX                                     ",
"                           +++oo@@ooooooX#$                                  ",
"                          ++.oo@@%OO@@@@.X+#$                                ",
"                         ++..$&@OOOO*=O@@.@-XX                               ",
"                         +..#.@&OOOO*OOO$--XXX;                              ",
"                        ++.#%.@O:OO*O*%$#$#-X+;;                             ",
"                        +..#&..::::**##%$$@@X.;;;                            ",
"                        +.&&%.;:OO:O#..++$$@;=;;;                            ",
">          >>>>>>>     >+.&&&-.:OOO--.+++@@.#.;;;                            ",
",>      >>>,,,,>>>>>>>>,+.&&@#.:OoO:++..;$@@#.;+.;                           ",
",,>>>>>>>,,,  ,,,,,>>>>,+.-@%&-<oo:X+.-$;;$@@..X;X                           ",
" ,,,>,,,,,        ,,,,,,++.@#&#<O+O++X-&+;;$@$..;;;                          ",
"                    ,,,,,++.@&%oO*:+;X-&$.;#$#$#.;;                          ",
"                         ++-@&#oO+:++;-&$.;;;;#.&;;; ;;                      ",
"                      .......#++:+:++.-#;;====;;&.;;;==+                     ",
"                   >>>>..+.#.++;:++++.#$;=#;##=&&#.;=;;=                     ",
"                >>>,,,,,++#..+++:++++-&%;=X;;;#=$$$&+;;=                     ",
"                >>>,   >>,,+++<<+++++#%%+=X;;XX+++-$1+=                      ",
"              >>>,,  >,,,*+++>****+%%%+++=#;;X#$;;+-$1+                      ",
"              >>>   >>,,     >    >+++++;;==#X$$;;;+.&1+                     ",
"                  >>>,,     >>>>>>,+++++ ++....$$+++..&2+                    ",
"                   ,,        >,,,,,     ,,+;;..##++$$--X33                   ",
"                                     ,,,,,+ ;;..++$===.333                   ",
"                                     ,,,, <<OO;;;O$==;;;;OOO                 ",
"                                         <<OO::O::O++#45OOO                  ",
"                                         <<OOOO::OOO::OOOOO                  ",
"                                        O<<<<<<<<OOOOO                       ",
"                                                                             "
};
