/* XPM */
static char *result[] = {
/* columns rows colors chars-per-pixel */
"77 53 26 1 ",
"  c #FFFFFF",
". c #750204",
"X c #60070B",
"o c #6A0507",
"O c #7F0000",
"+ c #55090E",
"@ c #282227",
"# c #4E3D30",
"$ c #43352D",
"% c #2D2628",
"& c #382E2B",
"* c #3E322C",
"= c #4B0C12",
"- c #1D1B24",
"; c #221F26",
": c #332A2A",
"> c #171723",
", c #49392F",
"< c #2B2B33",
"1 c #361019",
"2 c #636B78",
"3 c #5A2D24",
"4 c #4D1E18",
"5 c #673B30",
"6 c #64450E",
"7 c white",
/* pixels */
"                                                                             ",
"                                                                             ",
"                                                                             ",
"                                                                             ",
"                                                                             ",
"                                                                             ",
"                                                                             ",
"                                                                             ",
"                                                                             ",
"                    . .         ..                                           ",
"                     ..X.       X..                                          ",
"                     ..X.        XX                                          ",
"                        XX        X.                                         ",
"                           .      X                                          ",
"                ... ...     .     X                                          ",
"                ..X  . ..    .     o                                         ",
"               .XXX oO. ..        o.                                         ",
"          +   ..         ..        .                                         ",
"          +                         .                                        ",
"         +                  .       .                .                       ",
"                                  . . o  @           ..   @###               ",
"                               ..   . o$@%              . ##&&#              ",
"                                   @..*o==%   o--$;;;$&&.-#&-::#             ",
"           +++   + XX               o.o=&=$ &oo@*$;;$$%%--&---:**###*        ",
"             +   +              ..   *O==o=;:o@-**#o&$%%%..-@..-;;+O##**    >",
"          +               OOXXXX:..  OOo=o$@@@@*-oo&@@@%--#.@::.;;;;;%%****>>",
"        oo+                  OOXXX...====:,::***-#&-@-&%-:#..#%*..%%%;:*##** ",
"        o+               OOO;;<*#XXX11=.%:;=&*$$o-&----#-:@@....*.:;;*---##- ",
"       o+      .        .oooo.....XX.o*::>%$$$#o-##&@@.....-*.*..%.....@ 2-2 ",
"       +     o     o  .  ..;%%%$O#1X=o.::::;$$*##-#&&##%%%--%......-;%##2 2  ",
"                     ..  ;;;%&,%%:===.*.:>:;$$*#*%#-#---%%----@@@@@@---##2   ",
"                          ;%.OO%%=X==11::;@%$$:;**@:::-----------     ---#   ",
"                         ;.OO&*XXXX=o1=;;;;$,::;:::::-----------             ",
"                         ;O%**,X;==X=1=;;;;,,::;%::%%----------              ",
"      +                  .;%**XX;==%1oo=;;;,**:;%%%------------              ",
"                         3;:XX**;==X==1;1;;,**::;:---- -----                 ",
"                       44;::**&.@o=X==ooo;;,,*,::::---  ----                 ",
"                      444;::*%%oo@X===;o;;;;;**,*:---   ----                 ",
"                    44445;::*%oo;@@;;XX;;;: ;,,,,--:-   -54                  ",
"                     464 ;::**o:;;;;;X;;:   -,,,,---    554                  ",
"                    43    ;:*%%%;X.;;X;;     ,,,,---    554                  ",
"                  664    ;;@%%%;X;;;XX       ;;,,--    554                   ",
"                  544  ;;;**%;;;;;o X         ;,5--   5554                   ",
"                 334   ***%%%;;;;               554  55544                   ",
"                53   @@;*%%o4;;;  o             554  55444                   ",
"               543 35@@@;;4444   oo        55 55544   4444                   ",
"               34 35533;   44              4555554                           ",
"              53  353    >44   .  X        4455554                           ",
"               4   53   >44                 5554                             ",
"              53 >433                        4                               ",
"             43 433                                                          ",
"              3 >33                                                          ",
"                3                                                            "
};
