/* XPM */
static char *_1899_b52ddea90994474a196b12bc81728d18de1d4be6954c5c7b57e46444ecdfbd97[] = {
/* columns rows colors chars-per-pixel */
"35 79 256 2 ",
"   c #FFFFFF",
".  c #0000AA",
"X  c #00AA00",
"o  c #00AAAA",
"O  c #AA0000",
"+  c #AA00AA",
"@  c #AA5500",
"#  c #AAAAAA",
"$  c #555555",
"%  c #5555FF",
"&  c #55FF55",
"*  c #55FFFF",
"=  c #FF5555",
"-  c #FF55FF",
";  c #FFFF55",
":  c white",
">  c #D4E8F8",
",  c #C1D3E3",
"<  c #AEBECD",
"1  c #9BA9B8",
"2  c #8894A3",
"3  c #76808E",
"4  c #636B78",
"5  c #505663",
"6  c #3D414E",
"7  c #2A2C38",
"8  c #00B400",
"9  c #00A000",
"0  c #009000",
"q  c #90B800",
"w  c #7CA000",
"e  c #6C8C00",
"r  c #AFAFBB",
"t  c #A0A0AC",
"y  c #91919D",
"u  c #81818D",
"i  c #72727E",
"p  c #63636F",
"a  c #545460",
"s  c #454551",
"d  c #353541",
"f  c #262632",
"g  c #8B7F7F",
"h  c #7F7576",
"j  c #746A6D",
"k  c #686063",
"l  c #5D555A",
"z  c #514B51",
"x  c #454148",
"c  c #3A363F",
"v  c #2E2C35",
"b  c #23212C",
"n  c #7F7F8B",
"m  c #757581",
"M  c #6A6A76",
"N  c #60606C",
"B  c #555561",
"V  c #4B4B57",
"C  c #41414D",
"Z  c #363642",
"A  c #2C2C38",
"S  c #21212D",
"D  c #0000CB",
"F  c #0000AF",
"G  c #1E6186",
"H  c #1D5A7C",
"J  c #1D5272",
"K  c #1C4B68",
"L  c #1B435E",
"P  c #1B3C55",
"I  c #1A354B",
"U  c #192D41",
"Y  c #182637",
"T  c #181E2D",
"R  c #007F7F",
"E  c #027576",
"W  c #056A6D",
"Q  c #076063",
"!  c #09555A",
"~  c #0C4B51",
"^  c #0E4148",
"/  c #10363F",
"(  c #122C35",
")  c #15212C",
"_  c #4B5C5F",
"`  c #465559",
"'  c #414E53",
"]  c #3B474D",
"[  c #364047",
"{  c #313A41",
"}  c #2C333B",
"|  c #272C35",
" . c #21252F",
".. c #1C1E29",
"X. c #BB27EF",
"o. c #C300C7",
"O. c #E7D700",
"+. c #FFA700",
"@. c #DF7700",
"#. c #E75300",
"$. c #8B8B96",
"%. c #6F6F7B",
"&. c #5F5F6B",
"*. c #4F4F5B",
"=. c #3F3F4B",
"-. c #33333B",
";. c #2B2B33",
":. c #27272F",
">. c #1F1F2B",
",. c #1B1B27",
"<. c #171723",
"1. c #13131F",
"2. c #0F0F1B",
"3. c white",
"4. c white",
"5. c #1E0901",
"6. c gray44",
"7. c #676768",
"8. c #5E5E61",
"9. c #555559",
"0. c #4C4C51",
"q. c #44444A",
"w. c #3B3B42",
"e. c #32323A",
"r. c #292932",
"t. c #20202B",
"y. c #02DDDD",
"u. c #00AFAF",
"i. c #9B3333",
"p. c #8E3031",
"a. c #812D30",
"s. c #732B2E",
"d. c #66282D",
"f. c #59252B",
"g. c #4C2229",
"h. c #3F1F28",
"j. c #311D26",
"k. c #241A25",
"l. c #7F0000",
"z. c #750204",
"x. c #6A0507",
"c. c #60070B",
"v. c #55090E",
"b. c #4B0C12",
"n. c #410E15",
"m. c #361019",
"M. c #2C121C",
"N. c #211520",
"B. c #4E3D30",
"V. c #49392F",
"C. c #43352D",
"Z. c #3E322C",
"A. c #382E2B",
"S. c #332A2A",
"D. c #2D2628",
"F. c #282227",
"G. c #221F26",
"H. c #1D1B24",
"J. c #E10202",
"K. c #C30000",
"L. c #007F00",
"P. c #027504",
"I. c #056A07",
"U. c #07600B",
"Y. c #09550E",
"T. c #0C4B12",
"R. c #0E4115",
"E. c #103619",
"W. c #122C1C",
"Q. c #152120",
"!. c #373F27",
"~. c #343B27",
"^. c #313726",
"/. c #2D3326",
"(. c #2A2F25",
"). c #272B25",
"_. c #242725",
"`. c #212324",
"'. c #1D1F24",
"]. c #1A1B23",
"[. c #9EB0C3",
"{. c #91A1B3",
"}. c #8391A3",
"|. c #768293",
" X c #687383",
".X c #5B6473",
"XX c #4D5463",
"oX c #404553",
"OX c #323643",
"+X c #252633",
"@X c #381919",
"#X c #24141A",
"$X c #D79F07",
"%X c #C4910A",
"&X c #B1840D",
"*X c #9D760F",
"=X c #8A6912",
"-X c #775B15",
";X c #644D18",
":X c #51401B",
">X c #3D321D",
",X c #2A2520",
"<X c #8B7300",
"1X c #7F6A04",
"2X c #746107",
"3X c #68570B",
"4X c #5D4E0E",
"5X c #514512",
"6X c #453C15",
"7X c #3A3319",
"8X c #2E291C",
"9X c #232020",
"0X c #976300",
"qX c #8A5B04",
"wX c #7D5407",
"eX c #714C0B",
"rX c #64450E",
"tX c #573D12",
"yX c #4A3515",
"uX c #3D2E19",
"iX c #31261C",
"pX c #241F20",
"aX c #FEAA00",
"sX c #FFB800",
"dX c #D3CBB3",
"fX c #D0C3A7",
"gX c #CDBA9B",
"hX c #D4B28F",
"jX c #C8A383",
"kX c #BB9477",
"lX c #B7856B",
"zX c #AA765F",
"xX c #9C6854",
"cX c #8F5948",
"vX c #7E4A3C",
"bX c #673B30",
"nX c #5A2D24",
"mX c #4D1E18",
"MX c #400F0C",
"NX c #290000",
"BX c #D47808",
"VX c #D16F09",
"CX c #CE660A",
"ZX c #CC5C0A",
"AX c #C9530B",
"SX c #C64A0C",
"DX c #C3410D",
"FX c #C0380E",
"GX c #BE2E0E",
"HX c #BB250F",
"JX c #B81C10",
"KX c #00003C",
"LX c #FBEF4F",
"PX c #BF7300",
"IX c #C5C5C5",
"UX c #343434",
/* pixels */
"u                                                                     ",
"u h                                                                   ",
"$.g u                                                                 ",
"g u 6.6.                                                              ",
"6.u 6.9.6.                                                            ",
"7.u g 8.9.                                                            ",
"6.$.u 7.7.7.                                                          ",
"g u u 6.7.9.                                                          ",
"u g u h 8.9.6.                                                        ",
"  6.u u 7.7.7.                                                        ",
"  7.$.u 6.l 8.7.                                                      ",
"  u u u h 7.7.7.                                                      ",
"    g u u 6.l l                                                       ",
"    6.$.u h 7.l 6.                                                    ",
"    7.g g u 6.7.7.                                                    ",
"      6.u u h 8.8.7.                                                  ",
"      7.$.g g j 7.6.                                                  ",
"        g g u 6.l l                                                   ",
"        6.u g g 7.8.6.                                                ",
"        g $.g u 6.7.7.                                                ",
"          h g g h 8.8.7.                                              ",
"          7.u g u 6.7.h                                               ",
"          v u g u h 8.l                                               ",
"            6.u g g 7.8.6.                                            ",
"            8.$.g u 6.7.7.                                            ",
"              g g g h 7.8.7.                                          ",
"              7.u g u 6.7.g                                           ",
"              9.$.g g h 8.l                                           ",
"                h g g g 7.8.6.                                        ",
"                8.$.h u 6.7.7.                                        ",
"                  u g g g 7.k 7.                                      ",
"                  6.u h u 6.7.g                                       ",
"                  $.y h g h 8.8.7.                                    ",
"                    h g h u 6.8.6.                                    ",
"                    7.u h u h 9.9.                                    ",
"                    7.$.h g g 7.7.7.                                  ",
"                      6.g h u 6.7.6.                                  ",
"                      8.u h g h 7.8.7.                                ",
"                        u h h u 6.8.6.                                ",
"                        6.g h u h l l                                 ",
"                        u $.h g u j 7.7.                              ",
"                          h h h u 6.7.7.                              ",
"                          k u h g g 7.8.7.                            ",
"                          9.$.h h u 6.8.6.                            ",
"                            6.h h u h 8.l                             ",
"                            l u h g u 6.6.7.                          ",
"                              g h h u h 7.8.                          ",
"                              7.g 6.g g 7.8.7.                        ",
"                              u $.h h $.6.8.g                         ",
"                                h h h u h 7.8.7.                      ",
"                                8.u 6.g u 6.6.$.                      ",
"                                l u h h u h 7.l                       ",
"                                  6.h 6.g u 6.8.7.                    ",
"                                  9.u 6.h $.h 8.7.                    ",
"                                    g h 6.u g 7.8.7.                  ",
"                                    7.g 6.g u 6.6.6.                  ",
"                                    u u 6.h u h 7.9.                  ",
"                                      h h 6.g u 6.7.7.                ",
"                                      8.g 6.h $.h 8.y                 ",
"                                      8.u 6.6.u g 6.8.7.              ",
"                                        6.h 6.g $.h 6.8.              ",
"                                        9.u 6.h u g 9.l               ",
"                                          g 6.6.g u 6.7.7.            ",
"                                          7.h 6.h u h 8.h             ",
"                                          u u 6.6.u u 6.7.7.          ",
"                                            h h 6.g $.h 6.8.          ",
"                                            l g 6.h u g 9.l           ",
"                                            8.u 6.6.g $.h 6.y         ",
"                                              6.h 6.h u g 8.6.        ",
"                                              7.g 6.6.u u 6.7.y       ",
"                                                g 6.6.h $.h 6.h       ",
"                                                k h 6.h u u l 8.y     ",
"                                                u u 6.6.g $.h 6.$.    ",
"                                                  6.6.6.h u g 8.7.    ",
"                                                  l h j 6.u $.h 7.$.  ",
"                                                  8.u 6.6.h $.g 6.$.  ",
"                                                    6.h j h u u 8.8.y ",
"                                                    q.g 6.6.g $.h 6.6.",
"                                                    x g 6.6.h u u 8.8."
};
