/* XPM */
static char *_205e27da9514858cfb5248814659166QPfIBMvEKT8aW05q[] = {
/* columns rows colors chars-per-pixel */
"64 64 77 1 ",
"  c black",
". c #1A1B23",
"X c #1B1B27",
"o c #221F26",
"O c #20202B",
"+ c #23212C",
"@ c #27272F",
"# c #2D2628",
"$ c #382E2B",
"% c #252633",
"& c #262632",
"* c #272C35",
"= c #292932",
"- c #2E2C35",
"; c #2A2C38",
": c #2C333B",
"> c #32323A",
", c #33333B",
"< c #3A363F",
"1 c #43352D",
"2 c #49392F",
"3 c #192D41",
"4 c #1A354B",
"5 c #1B3C55",
"6 c #323643",
"7 c #353541",
"8 c #363642",
"9 c #313A41",
"0 c #3B3B42",
"q c #3F3F4B",
"w c #1B435E",
"e c #364047",
"r c #3D414E",
"t c #3B474D",
"y c #1C4B68",
"u c #454148",
"i c #44444A",
"p c #41414D",
"a c #404553",
"s c #454551",
"d c #414E53",
"f c #4C4C51",
"g c #4B4B57",
"h c #4F4F5B",
"j c #514B51",
"k c #465559",
"l c #4B5C5F",
"z c #555559",
"x c #5D555A",
"c c #4D5463",
"v c #505663",
"b c #545460",
"n c #555561",
"m c #5E5E61",
"M c #5F5F6B",
"N c #5B6473",
"B c #686063",
"V c #676768",
"C c #60606C",
"Z c #63636F",
"A c #746A6D",
"S c #6A6A76",
"D c #636B78",
"F c #6F6F7B",
"G c gray44",
"H c #7F7576",
"J c #72727E",
"K c #687383",
"L c #757581",
"P c #7F7F8B",
"I c #768293",
"U c #81818D",
"Y c #91919D",
"T c #8391A3",
"R c #8894A3",
"E c #9BA9B8",
"W c #AEBECD",
/* pixels */
"XXXXXXXXXXXXXXXXXXXXXXXXXXXXXXXXXXXXXXXXXXXXXXXXXXXXXXXXXXXXXXXX",
"XaNNNNNNNVVzzzzzzzNNNNNNNNNNNzNNNNNNNNNNNNNNNzzzzzjzcNNNNNNNNNrX",
"XNIR0VVVVVVR8PPAAAAAR<AAAAUJUR8EEETUVVR8VVEEEEKIR0IIIIEEIIIR0INX",
"XvIvoNDDDDDvoNDDDDDDc+IIIIIIIvXKDNNNDDc%IIIIIIIIcOIIIIPPIIIc+KvX",
"XvKD@<0<ssssssssssssssssss<<z0IK+0psssssssssssssis0ssssssssMKIvX",
"XvIM-+>>>>>>8<0<<-<<0<<0<<-<>zIK0&u-8--u-u-u-0u-00-8u-<-<@fZRKvX",
"XvMM$-&&&&&&&%==&&&&%&%%&&&&0LEPuo&&&&==&&&&&&&&&&&&&&&&&.zGYIvX",
"XvMM1<&&::&&:&:>&&::&&%%:&&&AATKju&&:%::&&::&:&%;&&&>&&&&ozHYIvX",
"XfMj1-:%:::&::5::54:5:::%:O;HAEPuu:&:%:::%:::::%::::%:%::ozAYKvX",
"XvM0u;::::e::::::::::46e::O6BKIKuu0:::,::$:::e::::::e::O:XzAYKvX",
"XfMo2-:e:::;e:w:e9ee900eee#+ABEUuu8:e:0:e10e686q:e:::e:>0ojvRPvX",
"XfR02-0:q9eyeeweeeeee09eee0;BBR08080$e00e0000696eeeeee900;jkR0vX",
"Xfvo2-*a8erqeaae0rt9e000re16BVvo0-700r09e0sqt9qteeea0er0q*fiv+vX",
"XvCN20>00trarteaaar0paer000;xCTKs-60tipr0sert0qaraear0rq<:fiNTvX",
"XcMN2-:00raarraaaqafqarirr0:xCKNfqq0aursraarttraaattuqu&w>fxkKvX",
"XcjM--8fucaavthzqaaqhhbart0:jmKNsqq7nsrytrnyrctaztdisr0t:<jnNKvX",
"Xcfv8-<uugfffdrhhhzhqhhuf2u8jzKNs-quphhyydrzytktt00hadfh>8fxNNcX",
"XcM0<-8furtdkffzh86600022uu6uxNCqo8uuuuuuiii53ykny5yyyfu58ijIZvX",
"XcM+--00q088e888e*8r6q67q80%juCcq-q00<088eq9ee00969e%000e8jjINcX",
"Xhjr-;upjujjiujjijjjuujfujjfuuMKo6jjujjjujiijfuujjijjjuujujjUCcX",
"XgxvtijiuuhhhhhzhhznhhhhzhzujuNK+suujuuujujuqfuuuujuuujuuuugNNrX",
"XgR<vCMMMMMMMbbnMCKNKNNKNKNKNNR0KcNNKNNKNNKNNKNKNNNKNKNNKKNNINzX",
"Xgv+NTIFNITAAAAAR0IIIIIITITKNKc+IPINNNNIREEIPIR0IAAEWWAAATUNIR0X",
"Xgmk@9sasqssgssqcosssppqssssh0INgsssssssssssssvossssssssi<0NIc+X",
"XgDku>u<---u0u<---u8-0--u--u8HTN0%-<<<<<--00<<<-<<<<<<-<086AUcgX",
"XgD<u-&&&&&&&&&&&%&%&&&&&&&&AHNI80&&&&&&&&&&&&&&&&666666666AINgX",
"XgD<f<%%&:&&&&%%&%&&:&%%::&&HHNI<<&&&&&&:&:&:&::&:;;;;;;=66AINgX",
"Xg<<-*%%::&&:::::::>&&::&:&&AANI--::&&::&%:::&::::;cEEEEEc6ANNgX",
"Xg0h--:::::::::::::::::::::+AxIN0*:6::::::::::::::;R8NNcR86ANNtX",
"Xgzd-<:90:e::e::::e::e:e:0$*AxDN0*:e::0:e::e:e::0,;c&6 Ic%6ANctX",
"Xaz0--0e::ee0eee::::eeee;e1*AxIN--eee0::::eeeeee:;;E6   UN6AINto",
"Xtfdu-0eeeee0eeeq9eeeeeee00*BxIN=00ee00000eeeeeee;;EN6 cNc8SIcrX",
"XCzu--eaeeaee0eeaea9eaeea08;xjR8--06r0qtwa0eeeere;;EN6 Dcc6NIkrX",
"XCR0--eaaaauea1aaeaseaea0uu:xicX--0qpqrraaerat0sr;;EN6  IN7cDR0X",
"XMv+--aaaauuauuaaaayaaaari2:BjKc--sqsyysaaaaaaarq;;Ec7  DN6DvcoX",
"XsDt--hhadtaaaaaadtthhaaaau8xjPc--hhrrhgaaaaaazg8;;R0NDcNR0cvcrX",
"XrD8++ahhidahhadddyahhhabra8jxDc-+rhyrrzhhahhhpuu;;v+cNccv+cvyrX",
"XqD%--hhdidddtytdyyhhhhhhhc8jxDc-;hyhhhghhuuuuuuuu;;;;;;;;6ccyrX",
"XrDr--hhhidddhvvhhvhcvhhhcv0xjDc++hgi5uupuuiufuuuu*;;;;;;;HcvyrX",
"XrDa;+ee80ee8eeee8eeee8608eejjDc++88e59q86q96r88e6veeee8euGcDyrX",
"XrDa-&ujj2ujjjjuuujjujuufjjuujDc++0xBdBBdxBBxBxxBBBxxxxBBxxcDDtX",
"XecaojufffffgggssissssssggujuuDc+xjjjdjjxjxjjjjjjjjxjjjzjjxcDvrX",
"XevacrccccccccccacacacaaccaaccvacacccqccccccacrcacaacacrccccDlrX",
"XeR0aDDDvvIIIIDR0IDDIIDDPDvvDDDR0ccDcbDDvDcDIIR0IIDDIIIPDvccCveX",
"XqDo&08<qqqqqq0v+qq0rqqquq8088cv+0<u0quqpff0uqborqqqrqqq0ps<ZR<X",
"XqD00o><<<<<<<<-<<<<-<<<<881<Haa<8<-<<08-0-888<<00<<<0<-<<<zyv+X",
"X9Do--&&&&&&&&&&&&&&&&&&&&&&HHcc<<&&&=%&%%%&&&&&&&&&&&&&%%zHdv9X",
"Xebq<<&&::&&:&::&:&&:&::&&:>AAaa-<::&*&&::&&&&>:&:&&:&::@OxVnceX",
"XeKq-8::%::%::::::::::%::%::AAac0-:::::::::::&:::::&:::::XABcIpX",
"Xerq--:0::e:::::::::e:e::e::ABaa-;:e:e:3::e:::::::0:::::9+ABZD9X",
"X6rr>-ee0:::e:eeee::e:::ee-*ABca0-eeeeqq::eee:eee:::e6ee9XBmZD6X",
"X6vq;;00eeeereeeeeeeeee0re,*BBaa--e0eeaaeeeeeeeeeee0aeeee9BxZD6X",
"X6R0--0qsaaetratteaaeapeee0oxBR0--0qa0qtaaaeaaeertaeeaaea:xxR06X",
"X6c%--0qraaatrtrataaaaaraa0*xBvo--quaarraaeaapaerraaaaaaa:Bzv%6X",
"X6ve--qahrraravhhtaahhqhaau8xxca-oqqaatrhr5rrphhaanrhhaaa:xzFc6X",
"X6veo+uurbffs0fuittitdt0ffu8xjva&o00hyczrfwzahfhvahhhhaah8xxFc6X",
"X6v6-ouuiiuuuuuuquiuiiuufpg8jjaa--0uuuuupfvyyhhhve86886qh8xxJv6X",
"X6a6+>e80800<<006q8e8e8eee08jjaro-q00000608e8e8e60hqee98e0jjSr6X",
"X;v6++jjjjjjjjjjujjjujuuujuujuD6++jjjjjjjjjjujjjpjuuijuufjjjnv:X",
"X:R0+ujjuuuuuuuujjuujjuuuuuuuucs+ujjuuuuuuuujjuujjuuuiuuuuuunv:X",
"X;v&ekfSMfR8ffMMSSCCznR0fnSffkR0NNggffbbnfR0nnffzngffR0MfqqnR0:X",
"X;6a6866aavo666666666av+9ava6Ac+A666666q66v+v66arvavvvoaaavrv+;X",
"X&;;;;;;;;;;;;;;;;;;*;:;;;;;;;;;;;;;**;6::;;;;;;;;;;;;;;;;;;;8&X",
"XXXXXXXXXXXXXXXXXXXXXXXXXXXXXXXXXXXXXXXXXXXXXXXXXXXXXXXXXXXXXXXX"
};
