/* XPM */
static char *_d4917e492aa4f83eb6efff5dfc26d0e6RSiWny8mjNJAKmX[] = {
/* columns rows colors chars-per-pixel */
"64 64 22 1 ",
"  c #0F0F1B",
". c #24141A",
"X c #122C1C",
"o c #103619",
"O c #2E291C",
"+ c #152120",
"@ c #232020",
"# c #242725",
"$ c #272B25",
"% c #2A2F25",
"& c #2D3326",
"* c #313726",
"= c #343B27",
"- c #373F27",
"; c #4E3D30",
": c #09550E",
"> c #0E4115",
", c #0C4B12",
"< c #313A41",
"1 c #364047",
"2 c #514B51",
"3 c #5D555A",
/* pixels */
"%=**X%X*--+&-=XXXo@&%Xo,+&---%+o-X$+X&X@X--+X-oX--=,$X&&X=&o%o$&",
"$Xo%XX&--o&+,-=X%X*=&+--$o--,XX--+X$+X%%@-1&@-*X*$X=+$X@1Xo-**@,",
"X--@X$X-*--+-&+XXX*-$X$-XXX+$+X-X$>=++&=&-*+%o,--X*$X+--+X&--$+$",
"$%X%%%*X+$O-+XX&&X--X%+X--&=X$+-$&>-+@&=X&oXX+&+---Xo.=+X-=*,XX+",
"--X&%=&-&oXX-&&$+-*XX--*@-+%=$ %--o&@%#=>-++X,=%+&-@&@X$$-**%.o+",
",o=+$X&%X&X-*=+%+=o-X&--++*=%-@X.o+>&-&-@=>X&-$X&+*&-&XX@&--*XX&",
"---&XX-X,-X-$X+$*X&>-o-X++$**@XX*+XXX&++X%1=&-@ %$-X$%=&XoX&X&+X",
"X1=-X-&&-$&=-X--$=X&,-&&--%=&-oX*-&*+&-+-oX+-X-$X,oXX>&,&$X+=&%*",
" $--X&-+%X-=X+o-X-*%:>o-.-+--@o&X++X-%-X==$+---@%-&-O&&X<X+-X=X&",
"X$-,-X$--%X+&X=$X=&=&1+$X&o@-++=+%X+@&X#-X=$@X+$&&@+X+-o-$-**&-@",
"XX>#&%Xo%X$@,$$.+-$&+%&+--X=---#+$+X&X$%&$*%@+X$.X+XX-%X*-X*X+X*",
"*o,$-XX$*XX==*-X@&o>&X X,%o&o-*&X&XX-@@X&X&-%+X%XXX$$$@++,=-=$+X",
"+X->&-X*XX+=&>%;$o%o--&%$--%--XX=->*$-X*X*XX+$@-$-&++$X-&X$Xo%-X",
" o-+*-+XX=-XX&$& >-=XX%@-,&X-%X%$XX-$>.%o-&@X&-&$+oX&+X&+ +-*X%*",
"X-&%%%&%&&$--%+-X,&X@---,-XX-+X$&X@>&XXoX-oX+&--@+--X&$&%X-*XO,-",
"XX&$o+ +&&-+-&-;$%*>--X-+XX,,, @X+++ ---@-%-XXX@X-X*&$X$%%$-+--X",
"*&++*,+>*&+X&X-X--X=%XXX+&X+o%$+$++XX$%X-o.*=%oX%-X=@&X$X-*X*XXX",
"-+&+X,X-*@@X-$*$*%&-&=%X&oo&>X,=-+&*o@,%o-X-X%+-X>&&&X$X+%%%-%=%",
"o$X-$=>-%-XX-%-$$$X,%&+=-.X+o*,X&.+-@+*&*oo-X-$+X%*X&#XXX@%&>>+.",
"&-@-1--X-X $%X=@=>@1@,-X%X@=X-o-&o--X+X X&X-X %&-X*o=%$$$&oX,-@-",
"--$X%*-&$XX$XX&++=X-&==>oX**+X+X%X*X%X%&o@--*.-$%*&%X$$X-+-X%&+-",
"*-+----&@&$X$X$#*X$X&%-%@X&XoX%#Oo+X,@,-%X$o-+*=***+%%=%--@XX-+-",
"X=@%%@X+%-#X@$=+X@%-$X%+*&+%-+=Xo@+X,X%&--*&o -@%%%$@%=X*XX%X&X-",
"+-X&** -&%&@&$=X+X&X-,X*-,XX$Xo-%+ -XXO-,+-XX,&-o&%X=@&--XX&-=X.",
"XXXX**&XX-+$o*.-,@=---@-*--,&XX-+-$&+X@*-#&+XX >-*X-&o,+X,@-&X$X",
"-XXo&*+--**%Xo@X---,--%+-&-X*$+%-$X-$X+---@X+.#-*@=@&o+X@-$-&%@&",
"X%-&oXXX &%@=X+%$--+X$=-&X1@&%&%*---+o%*,%+$X+X$->&+&-@%-X+,X2+%",
"&*oX=X+-$%>+&@XX@*OX&%o%--1@-$=+*=**$X$* *&oX+=-&-X-X-@=&%+->&X%",
"X-+XX%+-X$-+-XX=--@ +*&=+;&,-%&X--o%+X@-$-&XXX**&-&$-&#-&%XXXXX$",
" $oO,+XoX$X+@>-+XX,$,&X@X@X-&+@&&X&X&--+X+@XX%XX%=*-*X%%=>X%+@@@",
"++++XX+*&X=-=-*&XX1$+*X&$-&-$XX-$@X=--&+%o--&*&-X--X&%o=o=-+X%X@",
"X&&&@-,%$+@%*-&X*-%:-$+X%-*&O%%X&&=-&@% %.=@+X$&@**X--&o+-o-X&X=",
"->$%%-XX, XX*-&@-==>=,$ X-X=+@&,X+-X.XXX-#*X@&X%$X-&X%X&*%X%&.XX",
"X&@%+ -XX,&-&o$X=&&&%&X+$@X&+XX--X-XXX&-1$$-X-$@$X&o*X%@-*X-X+X-",
"**$,X+&@X$@X--+-&*-*XX$X+$X$X*=&+X&&&-%&$XX- X-%*---X@X$-,-X-$$X",
"%X+X*&XX,$<&$-;$&XXO,&-$X$$@$*=+#*X%=-%.+&=X+&X+*-*&X$X$&,,-+o**",
"*=&X-&++--+-$-*%X-= $1&%%XX&+*&+X-$$$+X+XX-%$X,,-+-X@%--X-+XXX-*",
"-X-XXX  XX+-&-&X%o&&X%-$X%-X---X=- X>=X#+X-==+=:-=*%&-*@--+X%$%-",
"oX-X%X$%+oX*=XoX@%-X%=**%%X%XX*X+%+=-$@$X-*-&-o+X--*Xo%%XX+X-&*-",
"+X@X$@%@X&+%$-*-X*X&X.&%O=+X--&&+%$=X$,-=X&O-+-X---XX $=XX&o#+*&",
"&%&&X+-%X$,*$*$@X-XX-+%+XX%X@%$&-o+@-+XXX-=%*XXX-=X-+,-&+-X+XXo&",
"&XoX+=#XX*-$--->X%-X-XX-X,%$X-X+#+X%--%XX&=%XX+--XX1=&=$+@#XX%oX",
"-&*X+-%%X$%o&&o-&,+XXX+X++-*+,X&+$&+XoX-XX=-*X=-X--%3+XX$=---%+>",
"X--+@+&*$X$%@=- XXX>%.%%+&-==*@$+-&@&X+&-X---&X,$,-&>X---@&&$-&X",
"--o-+&o-XX&=*%%$+X-+%+X$X&-o1X-&+-%%-X+%%o-*&-+==>@&-@+X-$X-$&*o",
"X%%= +X+$-&=-&>=X%-&%+@$@&-%@@---=X+XXX&--*.&o-o+=@--1+X-.@&@@XX",
"*X+X>-=-%X$@---$=- -XX,&,=X$--&2-oX%-,*=&o&X-oX&&$==$&=X=++++@--",
"-XXXX--,*X*%&X%&>+X&%+-$o&- ,-&;X--&X%*&&-*XX-&X--X$-X=$-XX+$+&X",
"XX$X-XX+=%-oXXXX==&+X-+,=.X=1$X=X+X-XXo%%-@>-@X&-+&=@-,=%+O-+,*X",
" --X-*$*XX+-&X@-X-& X&--&*-+XX>>++X&.+1+$$-XX&*+o+X-+XX-*X--X--o",
"*-+-$X*-$>%XX%&-=X+  +$=-.X-X$XX-&+& .X+-&+@=%&o*X*-XX@X%+*$-X--",
"---+-%$o+-&%X&X&+X@%$ --XXX&*@*+X+&-+X@X&%X-oXXXXX*X-X$ +%+.-$X%",
"o%&&o--&-XX+->&$X&X$X++o**=++o+X-:%& O-X@,Xo&XX=@%X+++=+%X$Xo$@X",
"oX=XX,X&XX&*---$=+X=XX-XX*X&+X-X&$-&X--X+-=-XX*>%@@X-X=$&=@-X*&X",
"-&X-=XXo=X++XXXX$&=--&@-X--XXX*XX+XXo*X=@%o*X&&&X+.=*X+-+-X*X&-*",
"&$=X*-&X-+X--&+&+X=o%%-&$&%+X$+%+%+&>X+>@&@+*X-%+,@X&@ &XXX-X=-+",
"%Xo**=XX=$&o&++X=--o+-%X=-,-*+X,.=@*XXX-$-XX&X*X%X=@$-+%o&*&+=&X",
"%o=-%=&$*@&&-++XX--$+@%$+X--X@X-@*-%+ -+*-@*X$@$%-X-X&Xo&**o+-o+",
"=&X$1#XX&@-+-+=XX--++.X*X@-%+ %$@X-o-X*X%=%&+<$@=-,&-&&X---X-*&$",
"-&X+-XX=$X--X=<*%-$-X>-=-&&--&@XX &&XX-X+XXX--oX-X+--X&X>XX@XXX%",
"&-X=*$X%@---@X>=-@X----% -X=@X-+=@%%&*%+=&&o*>X*%X&$X+XX-XXXX@-*",
"-X%+---+X=--XX=-X++%+-$%%+X=+$-@#%X==&&X,++*XX X=, X$@X=-XoX--*-",
"&*-+*%%+X,@X-XX%$,&$-X&-#XX-=-=**-@*-o%>=+-*-&@oo+=X-@oX%$-%X+X-",
"oX&#--X&X=X&XO-X$o$=-X+X&@%X@X%X++&o$oX-XX-$XXo&X&-&+$$-X&-X$&-="
};
