/* XPM */
static char *f376c42d2b504914e3b93ed05dfc66f6D7LXOrwrroOpM1wv[] = {
/* columns rows colors chars-per-pixel */
"64 64 32 1 ",
"  c #0F0F1B",
". c #13131F",
"X c #171723",
"o c #1B1B27",
"O c #1F1F2B",
"+ c #27272F",
"@ c #2B2B33",
"# c #3E322C",
"$ c #32323A",
"% c #33333B",
"& c #3B3B42",
"* c #3F3F4B",
"= c #0E4115",
"- c #0C4B12",
"; c #09550E",
": c #07600B",
"> c #454148",
", c #4C4C51",
"< c #514B51",
"1 c #686063",
"2 c #746A6D",
"3 c black",
"4 c black",
"5 c black",
"6 c black",
"7 c black",
"8 c black",
"9 c black",
"0 c black",
"q c black",
"w c black",
"e c black",
/* pixels */
",,,,,,,,****@+oXX+++#######**,,,,*****##@@@++X.X++******,,,,,,,,",
"&&&&&&&&,,***+.++++&&&,&&&$&$$###@&&*********+.Xoo&,,,,,&&$$$$$$",
"##&&&#$$$$$$$+X&&&&1<11><>&><<<<,,o$$&&>>>>>>+.@+@,,,&&##@@@@@@#",
"$+$$$$####$o+oX$,,,#,<<>>&>@@@>&&$+&&&#######+.o++#&&&&#@@@@@@##",
"#@#+#######o+oX+&&&#>>&&$o+>&&>@@@@>>>>>>&&$$+.+$o$$&&&###@@@@##",
"#####@@@@@@#$$.@>##++oooo$$$&+++++++++&&$####+.o#+##&&&$$$$+++$$",
"#$$$$%%@@@@###.+$&$ooooo$@@@@#######+@>>>#++$+.+##&&&,,,###@@@##",
"O&&o@@%%%@@#++.%&+oo$++@@@$$$$&&&&+++&&&&@oo#+.@$$&&&,,&&&##@$&&",
"+@@@&@OOOooooo.@o+X+oo+++++@@@@@@OOoooooo@@+++o+@%,&&&,&&&&&$$&+",
"&&&%++++++++++X +++++$>#+##>#++@@+@+++@@#&<<%+.O%@%@#&&$$$&&&$++",
"@@%@@@@@@@@@@@X.@$$$$$>>>>>&&&&&++++++,,11<@++ .$+$+o++@@####@++",
"+++@@@+o&#o$&&Xo+$$$$$$$$$$$$$$$$$$$$$$$$$&&,+o.@&O@&&&$$$++++++",
"XXooo@oo@+OOO%XX++++++++++@+++++++++++++++++XXXXXXX@%%%o++++@@@@",
"  ...o.OOoooooooOooooX......XXXXXXoooooo ....XXoooOXXXXXXX..Xooo",
"@@@@@@%%%%@@@@@++++++oooooooX.@@%%%@@@@@%%%%%%%++++++++%%%%%%Xo%",
"@********$&,,&&&$$$$$$$$$$$$+X&&&&&&&&%%$&&&##&@@&&<<$+&&,$@@+ +",
"$&&,,,,&&&#&,&&&&&&&>>$$$@@>+o&,,,,&&##&,&&&&@,,%,@+ooo@#&&$++Xo",
"&$>&&&&&$$+$++$$$&$$&&+&&><<@o+,,&$$@@$%%%%&&O%%%o@+@@%&+$$$&+X$",
"$&&,$$#>#$+++@@@@#@>1@@@$$$$@.+@@$$@@@@@@%+o&&&&&,@@%O%&&&&&&+.$",
"$$$,,$$&$&&&&,<&@@##&&&&####@X@$@@@@#@$&$%+o%%%%%&&&,<,$#&&&&@.$",
"#####@@####&&##&&,<<><><<<<<+oO@@&&&@&&$+%+o+++$$++&@@@$##&&,@.#",
"$$$$&@,,&,,$$$+@%&&&&&&&,&@@+.o@+$@@@@@@$$@o++@+$+OOO+%%&&,,,+.$",
"#><<><<&&%@@++++@@@#####&<<%+.O%@%@#&&&&,&$+o+@+$@@++%&$$++@@+.#",
"@@$&&&%,,&&&&&O@%&&&&&111<@++ .$+$+o++++$&$++%&&%%%%%&&&@@+@@+X$",
"$$$$$&&&#@%%@%,,,,,,&&&$$&&,+o.@&O@&&%%$$$@OO+@@XX@$$##@@@@@%+X$",
"$$$$$&$$$+@+++++++++%%++XXXXX...O++@@@+OXXXXXXXXO++++++++XXXooo.",
"XooXX.     .......... . ....XXoooOOOOoo.OXoXXXXXXXXXXooXXX...XXo",
"@@@@@@@@+XXX +++%%%%%%%%%%%%%%++++$$+OoXXXXXXXXXXXXXo+@@@@%%%%%%",
"###,&&&%*&%%X+*****1<<>$&&&##&@@&&<<$OO+OOOOOXXXXXXO+%&&&&&%%##&",
"&&,,&&&%&&&%O+*<<,21,,,,&&&&@,,%,@+oooo+++o$$@+XXXO+%%&&&%&&%#&,",
"$$$$@@@+@@&%O+*,,,&&$>@%@@&&O%%%o@+@@%%%@@%<&&%XXXO%%%@&%&&&%,&&",
"&&&$$o+@@@$<o+*<<<&&%,&&$,@&,&&&,@@%O%%oX@%%@&$.OXXO@$%+++$&@$&&",
"&&&&&@#&%@&2O+>#@>>#@+&%&&&,,,&&&&&,<,@OooOO++$X++XXO@#%@@##&$$,",
",&,,,&&O@Xo,o+$>#<#+@#@@@%&,O@O@,,&,OOOO#@@&%%+X+@+XX+@&@@&$$&,,",
",,&$&@XXX.o$ +&&ooo.XoOooo#<##o@%@%%<,,&,,&&@++ +@o+X+%%@+%@#,,,",
"#&##&&$+Oo@@ +++++%@@@+@++@&,,OOO@o+&&&,&@O@@@+.++%@X@+++O++@&&+",
"#$$&,,&@%@@@.+%%@@@@+++++++oXoO%@+@%<<#@+oo++O@.+%&&%X+%,O&&@@&#",
"%##&&#$+$$@# ++++++@$+ooo+&@@$%%@%%,%@##@+oO%&@X+,,,%X+@@++OO%@@",
"###@@#+XX@@..+++@++@++>>#&@@%&%++++%##@@++%%@@$X+,%@%@+@@%$$$$$$",
"@##+$++oXXX..O@+$@,,@%%&,$,,,,$$&&&$+@@#$$$&&&+X+@@OoXooo+$$$$$@",
"O+++oXoOO....OOOO@@%%OO%%OOOOOOO+++++++++ooo+OO.oOOo.+++++++++++",
"XX.X  .XXXX.....   Xo oXOO===-XoooOOOoOXX . . X.XX.. X.XX. .XoOO",
"%%%@@%%%%%%%%%%%%%%%%%%%+.O-:-o+%%%%%%%%%%%%%%%%%%%+++++XX.+%%%%",
"<<<<&,%&,,,&%#@%<1&1<1,&++O-;oo+%$,,,&&&@@,&&&,,&++&@&&&&++>>>>>",
",&&&$$$&@&&,&&$&&&&&,$++@++=-Oo+%&,,&@%&O@%#&%,%%@@@@%%&&+X&&&&&",
"##@###%%&<#&&%@%%%%%@@oOO++.=;o+@&###@++@+##@&&,,&@###@%&+.#@#><",
"&$$&,,&&@&@++@@@++@@%,,<<+++-=o%%&$+++&%%&&,&,,,,,,$+@@&$&.@@$&&",
"##><1<1111&#$XXooo+oO%%,,+O==oO%$o+@+++o++@@O%&,,,,@%%%%%&.#####",
">>>+$$$o&++XoX.X+++&OOOo%+O=ooO%%O,&&,,,,&%%%&%@@%&@$$$&$@ @##>>",
">>>>>>>>+++o@@o+OOOo.Xooo+O=o XoXXO&@%,%,,$@%%@@@,,&&@@OoO.@&>>>",
">>><&&,&$+o+%&%++++%&$$@&&&$$$$$+$&&&&&,,&&@@+$++@@@++O@@%.+&>>#",
",,&&++$&$++%&&%%%%%&&&@+###&&%@@%++%%$$$@OO+@@XX@$$##@,%%%..$$,&",
",,&&,,,,%%,,$&&&&&&$o+o+o++++.o+oOo@+OXXXXXXXXO+++++++%,,,o.++++",
"%%+++@oOO%O@oOO@%@@%oX+o@++++o%%O@ooo.OXoXXXXXXXXXXooX%O@@X.+++&",
"XXXOOOoXXXXXoXXXoXXX..ooXXXXooXOXXXOoXXXXXXXXXXXXXo+@@XXXX..o.oX",
"@@++++@@@@@@oXX+++@@@@@%%%%%%%%%%%@OO+OOOOOXXXXXXO+%&&@@@@@@@@@@",
"#&#&&&&&&&&,.%<<1,,,,&&&$&$$###@&&*oo+++o$$@+XXXO+%%&&&&,,,$&@##",
"$$#########&X&<1<1<11><>&><<<<,,o$$%%%@@%<&&%XXXO%%%@&##&&&+$+&$",
"#@$$$$$$$&&&X$,,,#,<<>>&>@@@>&&$+&&%%oX@%%@&$.OXXO@$%+&&&,&###&#",
"$+@+$+++@&$$X+&&&#>>&&$o+>&&>@@@@>>,@OooOO++$X++XXO@#%&$$$$&&&$$",
"&&@@@@%%@@@@.@>##++oooo$$$&++++++++OOO#@@&%%+X+@+XX+@&@@@%%&&###",
"$$%%%%%@@@@@.+$&$ooooo$@@@@#######+,,&,,&&@++ +@o+X+%%@@@+++$$+$",
"#@%#&&##$+$+.%&+oo$++@@@$$$$&&&&+++&&,&@O@@@+.++%@X@+++$+$$+@###",
"@o+@@++oo@@@.@o+X+oo+++++@@@@@@OOoo%#@+oo++O@.+%&&%X+%@@@@++@++@"
};
