/* XPM */
static char *bdb9b16c19cc446fb8582f06b092eb8fuu4KregfRnnJf3gA[] = {
/* columns rows colors chars-per-pixel */
"64 64 46 1 ",
"  c #0F0F1B",
". c #13131F",
"X c #24141A",
"o c #2C121C",
"O c #361019",
"+ c #381919",
"@ c #2E291C",
"# c #31261C",
"$ c #3D2E19",
"% c #3A3319",
"& c #171723",
"* c #1B1B27",
"= c #1D1B24",
"- c #1F1F2B",
"; c #211520",
": c #241F20",
"> c #23212C",
", c #27272F",
"< c #332A2A",
"1 c #3E322C",
"2 c #2B2B33",
"3 c #2E2C35",
"4 c #32323A",
"5 c #33333B",
"6 c #3A363F",
"7 c #410E15",
"8 c #4D1E18",
"9 c #4A3515",
"0 c #573D12",
"q c #5A2D24",
"w c #514512",
"e c #746107",
"r c #353541",
"t c #3B3B42",
"y c #3F3F4B",
"u c #454148",
"i c #41414D",
"p c #4C4C51",
"a c #4F4F5B",
"s c #514B51",
"d c #555559",
"f c #5E5E61",
"g c #5F5F6B",
"h c #686063",
"j c #746A6D",
"k c gray44",
/* pixels */
"+8+++++++++++++++7777++++++++++8888+++++++++++008888000088888+++",
"78+++++888778888877+++++00088+++++++++008+++++788877777777880000",
"+++++++++++000887+++++8999999+o++++++++++++++ooo008888888++++++8",
"*..   ......     .7OOOOOOX  .7777777# & XXXXXXo ..     .@      *",
"g112, 2-.2,-.*  2.  O8887oX  8787887  XX780+O9 .,-.*  2. ,-2,*  ",
"--,  * ***** -* 2 ,  O8087oX 8787787 X8780oO$  =-- -* 2 ,       ",
"      .**.   -       #OO788XX8788787Xo788oX$  &&   - ,2  2@.   *",
"&,42,-2 7,2,2 2 = ,4  #o878XX8788787X+88+o$ * O,2,2 2 * ,1uut u2",
",gy14,--@21yttt42 2u3  <o08XX+788787XX+oO$   -@212yt442 21uusssg",
"pppy42- 24@gyppu4,,%ur  #o0XX8788+87oXOO$&  2 ,4@r*ppy4, $suuy12",
"pppauu, -2-,1guu12:25r3  #OXX8787887oXo#&  4- -2-,<i3u12 24ir12,",
"tuuuyuu. - 2-,12,3  &,:   #XX+8+8887oXX&  i5-. - 2-,12,2  **.2,2",
"141442. .*******,   **** =  Xo8+8887O$   32,  .   - & ,     * 22",
".2*****. * ** * ,.          7+8+88+7=   -:***. * ** * ,., *  ,22",
"2 ,   *  2@.   * *4,2444,, =7+8+88+O  , ,   *  ******* *X3244t1*",
"y4tt442 ,,,,,,,2 , ,typpt, =7+7+88+O ,i4rtr42  ,,,,,,2 2 2typppp",
"2gygggt,2ipsss5, ,&3typpt, *O+78+8+O 42gygggg, ,pssss,-,24typppy",
"ypsppyy4.<puui42 ,ypuuppt, *O++8+8oO sypsppyt5 ,puui1, ,4suuppyt",
"uuppiu42:34uh12, ,111tuu4- *7++++8oO 1uuppyg,2 ,4yyy2,  411tuupp",
"1tuut4,*  :,,,,2 , ,-,55,   7++7+8o7 ,21ttt5,*  -,,,,,   ,-,44, ",
"-,44, ,.      22-2,2  &, &  7+8888o7   -,2,-*&      2,  ,2  &2 .",
"  *2 .24, =          *-2    7+888+o7            *          *>2  ",
" *-2  ,1.,  .==.   - ,2  *&*77888+o7 - *-2  , &,  .**.   - ,2  *",
" * ** >44t2,2 O,2,2 2 * -$4278888oo7   * ** * 4t2*2 *--,,,,,*  %",
"2 *,44tsdyy* -@211tttt2 55a2788888+7&t2 *,45tpayy* -@259tttt2  4",
"p -4ttpdp2222 ,4@tuysy5,tsp*778++8+7 uu -4ttpfp2222 ,4<iuypyg,up",
"1 ,4tuupst2t- -2-,1tuu521us2777++787&uu ,4tuupst2r- :2:,uuuu121u",
"- 2,4111titt-& - 2-,12,2,4t47777+787 ,- 2,4111tuuy*& - ,-,12,2,4",
"   ....**-,*      &   & & *-7+87++87     & & **         & .&. . ",
"++++o++++88888888+++++++++oo787888+7XoXooo++++++7+++++++X$@ $$90",
"8+++++O+++++o+++++++++++++oX78+878O7&9$999$$8+++++7+++++++++o++=",
"++ooooO88qq88+++ooo++++8++oX78+8787OXo++++++++ooooooo88++ooooo+ ",
"+++++++++77788++++++oO++++XX78o87877XX++oo+++++++++++++++o+oo88+",
"oooooooooooooOO+++++O+oooooX78X87877XOXooooooooXXXXooooooooo++++",
"+++++++++++++++++++++++++++&78O++8+7&&++++++++++++++++++++++++++",
"                            78+8O8+7                            ",
",-..  . -,,,   2,22: &, * & 78+8O877 .,X..  & -,,,   2,22-*.2 - ",
", .  - -  ,&  *-       &*   7888O877    .  - -   .  *-       .* ",
" ,    ..-24422- -,,,,,,,&&  788+78O7&***--  .. --2,,-  *--,,,-.*",
" O,,-*.&-ttyt5,- 535tyyt&   787+O88O&3tt,,-*..--ppt4,- ,24typ1* ",
"#25wg3 >2tpaag5*  ,2tyggt2  787+O787 &tt4wg3 --ppaag *  ,ppyggg2",
"gyyast%=5tppdpt, ,5tuspdy,  7878+787&ttyuasa,-4tppdpr- ,4tuppdyu",
"455tt1>-2uuussu, ,tuupput-  7878+787 44r4tts--4uuuasi: ,tiuppip:",
"X2225>&--,2444,, ,124455--  7+78+787&,-2224,&-:241     ,241ttt--",
"                            7878++87 . ; ,-2 ,2-  ,   ; ,-,54, O",
"-********- *----,-&**,-*&2& 7878O887           - 2-1  &-&**,:*&3",
"   2,,2,,-  225t5,* *-2   * 7+8++887     *******  22ti    *-2   ",
"**  2X55X&  ,2tyyt, * ,24g, 7+8+8887  ==  2%hh1&  ,2iyyt, * ,25g",
"4  2@tyyts, 2uuyai4s44typpt*7+8+8887.14  2@yuifs1 2uyyau4s44typp",
"1-,-25ytyu, 2-,12tu415u1ug,&7+8+8887.,1-,-2ryuiu112-,12iu514u1ug",
"11* *-11us, ,2,5-4,13,g1112&78887877 ,11* *-11up1,,2,r-1212,g11u",
",*&& & -%2, 222,22-*&*,,--& 7878788O .,*&& & :%2$ 222,22-*&2 ,--",
" &  - -  ,&&          &*    78787787   .  - -  ,&  *- 2,    .*  ",
">   &   - -*  *- -,,-  * *  778888+7.*,   &   - -*  *- :2,  .* *",
" 2-*&**&  22 2*  2yt1r: **  788888+7*, 2@&   *  22 2*  2yt14- **",
",1111122 ,5tt2*&-iyshsp 2, &788888+7*1,41yttu, ,5tt2*&-iys4ss 2,",
"2uppsss,-2itss, -ryyaui2$g .78788+87:421pssps,-2ihsp, -4uuauu,%g",
",%syuy12 ,5uss4. 2tttt-2,, .78787887*,,4suuu12 ,tusp4. 2X4 4-2,,",
":2ryr92  O2,t42 *-,%,22-&- 77+8+8887.*:24ug12,-72,*5, *-2%,22-.-",
"  &* r    .2: :  &&*:-  -   7+8+8887   ******2- &2  X    2--  -2",
"      *=&   * --    ,,,,2 & 7+8+8887        22>   * 2,       ,2,",
"*******3- &,-,--::, ,44rpp2 7+8+8887 .***  2,5542,,2444,,,, ,4yp",
"jie14515, *25ytttt, ,4ypggt*7+7+8887-4ji64, 26ddytttuhhht4, ,ygg",
"sjjpy%ah, ,15gpyu4, ,,ugy%p&7+78+887,,sjjp,.,5kjh15gsyups,, ,2u%"
};
