/* XPM */
static char *_a4f671bcb4b44cbd23c8ecaeb56a125sZO7T24T2ulcHCa1[] = {
/* columns rows colors chars-per-pixel */
"64 64 21 1 ",
"  c #0F0F1B",
". c #13131F",
"X c #171723",
"o c #1B1B27",
"O c #1F1F2B",
"+ c #27272F",
"@ c #3E322C",
"# c #2B2B33",
"$ c #32323A",
"% c #33333B",
"& c #09550E",
"* c #0E4115",
"= c #0C4B12",
"- c #027504",
"; c #3B3B42",
": c #3F3F4B",
"> c #454148",
", c #4C4C51",
"< c #514B51",
"1 c #686063",
"2 c #746A6D",
/* pixels */
",,,,,,,,>>::#+oXX+++@@@@@@@::,,,,:::::@@###++X X++::::::,,,,,,,,",
";;;;;;;;,,:::+X++++;;;,;;;$;$$@@@#;;:::::::::+XXoo;,,,,,;;$$$$$$",
"@@;;;@$$$$$$$+X;;;;1<11><>;><<<<,,o$$;;>>>>>>+X#+#,,,;;@@######@",
"$+$$$$@@@@$o+XX$,,,@,<<>>;>###>;;$+;;;@@@@@@@+ o++@;;;;@######@@",
"@#@+@@@@@@@o+oX+;;;@>>;;$o+>;;>####>>>>>>;;$$+X+$o$$;;;@@@####@@",
"@@@@@######@$$X#>@@++oooo$$$;+++++++++;;$@@@@+ o@+@@;;;$$$$+++$$",
"@$$$$$$####@@@ +$;$ooooo$####@@@@@@@+#>>>@++$+ +@@;;;,,,@@@###@@",
"O;;o##%%%#+@++X%;+oo$++###$$$$;;;;+++;;;;#oo@+X#$$;;;,,;;;@@#$;;",
"+###;#OOOoooooX+o+X+oo+++++######OOoooooo##+++X+#%,;;;,;;;;;$$;+",
";;;%++++++++++X +++++$>@+@@>@+++#+#+++##+#oXXoO+++@@o#$$$$;;;$++",
"##%###########XX#$$$$$>>>>>;;;;;++++++,,$$$XXooOOo+@#####@@@@#++",
"+++###+o;@o$;;XX+$$$$$$$$$$$$$$$$$$$$$$$$$X **oOOo+++$$$$$++++++",
"XXooX#oo#+OOO%XX++++++++++#+++++++++++++oOX*=&XXXXoOOOoX++++####",
"   XXoXoOoooooooOooooX XX  XXXXXXXoooooo    *=-=X* XXXXXXX XXooo",
"######%%%%#####++++++oooooooXX##%%%######+OX**==**&OO+%$$$%%%Xo%",
"#::::::::$;,,;;;$$$$$$$$$$$$+X;;;;;;;;%%%+OO *=X X=&O++;;,$##+ +",
"$;;,,,,;;;@;,;;;;;;;>>$$$##>+o;,,,,;;@@;$+++ ==+o+X=O+%#@;;$++Xo",
";$>;;;;;$$+$++$$$;$$;;+;;><<#o+,,;;;@@@@#+++X=XoO+ =O++;+$$$;+X$",
"$;;,$$@>@$+++####@#>1###$$$$#X+##$$######%+o==+OOo+=ooo;;;;;;+X$",
"$$$,,$$;$;;;;,<;##@@;;;;@@@@#X+$####@#$;$%+o= O++O+*+oo$@;;;;# $",
"@@@@@##@@@@;;@@;;,<<><><<<<<+XO##;;;#;;$+%+o=X+#+++*###$@@;;,#X@",
"$%%%;#,,;,,$$$+#%;;;;;;;,;##+Xo#+$######$$#o=+#$$+OOO+%%;;,,,+ $",
"@><<>,,;;%##++++###@@@@@;<<$+Xo%#%#@;;;;,;$+o+%;%++++%;$$++#++X@",
"##%;;;%,,;;;;;O#%;;;;;111<+++ X$+$+o++++$;$++%;;%%%%%;;;##+##+X$",
"$$$$$;;;@+%%#%,,,,,,;;;$$;;,+XX+;O#;;%%$$$#OO+##XX#$$@@#####%+X%",
"$$$$$;$$$+#+++++++++$$++XXXXXX XO++###+OXXXXXXXXO++++++++XXXooXX",
"XooXXX     XX  X XX X X  X XXXoooOOOOooXOXoXXXXXXXXXXooXXXX XXXo",
"########+XXX +++%%%%$$$%%%$$%%++++$$+OXXXXXXXXXXXXXXo+####$$$%%%",
"@@@,;;;%:;%%X+:::::1<<>$;;;@@;##;;<<$OO+OOOOOXXXXXXO+%;;;;;%$@@;",
";;,,;;;%;;;%O+:<<,21,,,,;;;;#,,%,#+oooo+++o$$++XXXO+%%;;;%;;$@;,",
"$$$$###++#;%O+:,,,;;$>#%##;;O%%%o#+##%%%##%<;;$XXXO%%%#;%;;;%,;;",
";;;$$o+###$<o+:<<<;;%,;;$,#;,;;;,##%O%%oX#%%#;$XOXXO#$%+++$;#$;;",
";;;;;#@;$#;2O+>@+>>@##%%;;;,,,;;;;;,<,#OooOO++$X++XXO#@%##@@;$$,",
",;,,,;;O#Xo,o+$>@<@+#@###%;,O#O#,,;,OOOO@##;%%+X+++XX+#;##;$$;,,",
",,;$;#XXXXo$ +;;oooXXoOooo@,@@o#%#%%<,,;,,;;#++ +#o+X+%%#+%#@,,,",
"@;@@;;$+OX## +++++%###+#++#;,,OOO#o+;;;,;#O###+X++%#X#+++O++#;;+",
"@$$;,,;#%###X+$$####+++++++oXoO%#+#%<<@#+oo++O+X+%;;%X+%,O;;##;@",
"%@@;;@$+$$#@ ++++++#%+ooo+;##$%%#%%,%#@@#+oO%;#X+,,,%X+##++OO%##",
"@@@##@+XX##X +++#++#++>>@;##%;%++++%@@##++%%##$X+,%#%#+##%$$$$$$",
"#@@+$++oXXX XO#+%#,,#%%;,%,,,,%%;;;$+##@$$$;;;+X+##OoXooo+$$$$$#",
"O+++XXoOOX  XoOO++#%%OO%%OOOOOOO+++++++++ooo+oO ooOX +++++++++++",
"XXXX  XXXXXX X X   Xo oXOo***=XoooOOOoOXX X X XXXXXX XXXXX XXXOO",
"%$$##$$$%%%%%%%%%%%%%%%%+Xo=&=o+%%%%%%%%%$$$%%%%%%%+++++XX +%%%%",
",<<<;,$;,,,;%@#%<1;1<1,;++O=&oo+%$,,,;;;##,;;;,,;++;#;;;;++>>>>>",
",;;;$$$;#;;,;;$;;;;;,$++#++*=Oo+%;,,;#%;O#%@;%,%%####%%;;+X;;;;;",
"@@#@@@$$;<@;;%#%%%%%##oOO++X*&o+#;@@@#++#+@@#;;,,;#@@@#%;+X@#@><",
";$$;,,;;#;#++###++##%,,<<+++=*o%%;$+++;%%;;,;,,,,,,%+#+;$; ##$;;",
"@@><1<1111;@$XXooo+oO%%,,+O**oO%$o+#+++o++##O%;,,,,#%%%$$;X@@@@@",
">>>+$$$o;++XoX.X+++;OOOo%+O*ooO%%O,;;,,,,;%%%;%##%;#$$$;$# +@@>>",
">>>>>>>>+++o##o+OOOoXXooo+O*o XoXXO;#%,%,,$#%%###,,;;##OoOX+;>>>",
">>><,;,,,##;;;$$$$$+$$++XXX*oXX@$o;;;;;,,;;##+$++###++O##%X+;>>@",
",,,;$$#o+++@@@;;%##%++XXoXooXX+@+#++++oooXoO;++;;;;;,,,%%% X$$,;",
",,<,#+O.X++$$;;;;;;$o+o+o++++Xo+oOoo+#O#o#++$$;;;,,,,%%,,,o ++++",
"$$$o X**=&+$oOO#%##%oX+o#++++X%%O#oooXOXXoXXXX++++#oOO%O##XX+++;",
"XXoX   &&.XXoXXXoXXXX ooXXXXooXOXXXXXoXX XXX XXXOOOoXXXXXXX XXoX",
"###+++*O..+*oXX+++#####%%%%%%%%%%%####+##++XXX+++++#############",
"@;++X**oo++*X$<<1,,,,;;;$;$$@@@#;;:::::::::+XX@@;;;;;;;;,,,$;#@@",
"$$$+X*=-=O$;X;<1<1<11><>;><<<<,,o$$;;>>>>>>+X+@@@@@@@@@@;;;+$+;$",
"@#@+ * X&O+;X$,,,@,<<>>;>###>;;$+;;;@@@@@@@+ X$$$$$$$$;;;,;@@@;@",
"$+o++*X *O$>X+;;;@>>;;$o+>;;>####>>>>>>;;$$+X+##+$+++#;$$$$;;;$$",
";;;+O==X++#@ +>@@++oooo$$$;+++++++++;;$@@@@+Xo+####%%####%%;;@@@",
"$$$OO*Oo+++$X+$;$ooooo$####@@@@@@@+#>>>@++$+ +#%%%%%#####+++$$+$",
"@#@o**#####@X$;+oo$++###$$$$;;;;+++;;;;#oo@+X+%%@;;@@$+$+$$+#@@@",
"#oXo+XoXoo++ #o+X+oo+++++######OOoooooo##+++o+#+##++oo####++#++#"
};
